<svg xmlns="http://www.w3.org/2000/svg" xml:space="preserve" fill-rule="evenodd" clip-rule="evenodd" image-rendering="optimizeQuality" shape-rendering="geometricPrecision" text-rendering="geometricPrecision" viewBox="0 0 4736 4722">
  <path fill="#2b2a29" fill-rule="nonzero" d="m4736 2363-696 697v985h-998l-674 677-676-677H696v-985L0 2363l696-696V683h991L2368 0l681 683h991v984l696 696zm-333-2-442-443h-520l355-355V928h-636l-355 356V768l-437-438-437 440v527l-366-369H943v635l355 355H780l-444 445 438 443h524l-355 355v640h622l366-366v529l437 435 437-440v-513l355 355h636v-640l-355-355h520l442-445zm-798-907-467 464h-333v-333l460-457h340v326zm-990 15-247 247-244-247V857l244-247 247 247v612zm1521 897-246 246h-640l-252-249 247-246h645l246 249zm-2205-448h-327l-473-470v-320h323l477 478v312zm1013 694h-329v336l-247-246-244 246v-336h-325l246-246-246-249h325v-333l244 246 247-246v333h325l-247 246 251 249zm661 992h-340l-460-461v-337h346l454 454v344zM1738 2363l-249 249H846l-249-249 247-246h650l244 246zm877 1499-247 247-244-247v-610l244-243 247 243v610zm-684-736-477 478h-323v-326l475-472h325v320z"/>
</svg>
