<svg xmlns="http://www.w3.org/2000/svg" viewBox="0 0 5460 5817">
  <path d="M5017 3599c50-15 95-37 137-64s78-60 106-98a197 197 0 0 0 35-179c-6-21-21-34-46-40-43 56-86 100-131 131-44 31-100 47-168 46-55 1-93-12-115-39-21-27-37-70-48-131v-265c3-31 9-62 16-92 15-57 40-106 75-146 36-39 87-60 152-60 79 0 145 20 198 58 53 39 96 88 128 148 33 60 57 127 72 198 16 73 26 143 31 210a878 878 0 0 1-141 525 639 639 0 0 1-186 183c-135 90-291 62-441 103-72 21-146 56-220 104s-146 113-215 193c-68 81-129 183-183 305-47 114-99 236-156 367-56 132-121 254-195 367-73 113-157 207-252 282a518 518 0 0 1-331 112c-98 0-177-22-239-65-61-43-109-99-143-165-33-66-55-138-66-217a1285 1285 0 0 1 39-585c38-122 88-240 150-358 63-116 136-229 221-340 86-109 175-213 269-313 82-74 140-119 174-136s51-19 54-6c2 14-5 36-22 67s-35 57-55 75l-82 87-123 136a2506 2506 0 0 0-274 384c-60 105-107 217-144 336-35 119-53 230-52 332s25 189 72 258c47 70 124 108 232 115 70 5 138-15 203-60 64-46 128-109 189-190 62-80 121-176 178-289 58-112 116-234 173-365 66-145 139-274 219-387 80-111 164-205 251-280 86-74 174-131 263-170 154-66 257-38 391-82z"/>
  <path d="M3931 3407c98-151 167-311 206-480 38-168 52-338 40-509-13-171-45-342-98-512a2876 2876 0 0 0-474-912 2732 2732 0 0 0-320-352c22 85 54 201 96 346 42 147 87 309 133 486l147 557a14650 14650 0 0 1 232 1037c25 145 38 258 38 339zm433-997v104c-2 115-12 233-30 355a2623 2623 0 0 1-328 937c-88 149-196 286-325 413a2125 2125 0 0 1-453 336c-173 97-371 173-593 226-90 22-143 26-159 12-16-13-10-29 15-48 141-90 271-178 391-266a4500 4500 0 0 0 948-938c-10-76-28-176-57-301a18971 18971 0 0 0-237-905 94577 94577 0 0 1-418-1519c-37-146-68-276-92-390-24-112-37-201-41-264 0-48 4-84 10-107 6-22 14-37 21-47 9-7 18-10 27-7a3582 3582 0 0 1 585 527c162 186 297 380 405 584a2884 2884 0 0 1 331 1298z"/>
  <path d="M2771 2060c2-26-19-35-65-28s-98 28-155 61c-57 34-113 78-166 130-53 53-86 112-101 177-19 84-28 163-26 235 4 72 4 118 4 137 39-29 86-68 141-117a1457 1457 0 0 0 298-372c40-73 63-148 70-223zm37 1518c34 1 128-16 173-39a596 596 0 0 0 237-219c30-48 45-95 47-142 1-47-16-92-51-136-35-43-94-80-179-113-9 35-19 58-32 70-12 12-17 8-15-12l5-93 15-181c6-64 15-123 24-177 9-52 21-80 35-83 82-10 150 21 202 88 53 70 91 158 114 268 24 110 30 231 20 363-9 133-36 258-79 376a910 910 0 0 1-180 306 499 499 0 0 1-525 127c-74-30-141-77-199-141a942 942 0 0 1-155-233c-45-91-78-193-101-304a623 623 0 0 1-310 108v69c0 234-30 444-94 629-26 80-61 158-105 235a923 923 0 0 1-167 210 831 831 0 0 1-557 227 758 758 0 0 1-606-221 995 995 0 0 1-206-298c-56-118-91-258-108-417-21-180-12-350 27-509 40-158 95-300 168-426 72-125 155-231 249-317a989 989 0 0 1 476-240c74-14 151-27 229-40 78-11 158-25 239-41a1060 1060 0 0 0 469-216c73-57 141-135 206-235 12-26 27-39 43-41 15 0 20 14 12 41a995 995 0 0 1-174 326 761 761 0 0 1-468 273c-87 16-174 29-262 40-88 10-175 24-261 41-87 17-167 47-242 87-121 68-218 146-294 235a1040 1040 0 0 0-249 613c-9 112-3 223 15 333a698 698 0 0 0 241 436c126 103 304 154 532 154 99 0 192-16 280-47s164-75 229-131c65-55 116-121 155-196 38-76 58-159 58-248 0-108-17-191-50-249-34-58-71-101-112-129-41-27-79-45-114-55-35-9-53-22-53-37v-366c0-15 3-26 8-33 5-6 18-3 39 9a1466 1466 0 0 0 195 93c41 16 84 28 128 37 45 10 86 13 124 10 22 1 47-4 76-17 29-11 57-24 85-40a573 573 0 0 0 106-69c3-67 5-144 6-231 2-86 7-174 17-265 9-90 24-180 44-268 21-88 53-166 98-236s102-128 173-174c71-45 160-71 268-76 59-2 104 15 138 49 34 36 59 78 74 128 11 35 18 71 22 108v154l-6 41c-24 141-65 271-123 390a2198 2198 0 0 1-377 554c-61 63-107 107-139 133 13 47 38 93 78 138a784 784 0 0 0 302 215c39 15 76 25 112 27zm1790-1271c-4 0-3-19 4-58l27-127c11-46 24-89 37-128s24-58 33-59c11 1 34 6 69 13a764 764 0 0 1 215 83c30 19 45 37 45 55 0 24-4 54-12 94a1039 1039 0 0 1-74 216c-15 27-27 39-37 34-40-17-90-37-148-63-57-25-110-45-159-60zm-2751-851c-4 0-3-20 4-58l27-127c11-47 23-90 37-128 13-39 24-58 33-59 11 1 34 6 69 13a761 761 0 0 1 215 83c30 19 45 37 45 55 0 23-4 54-12 94a1041 1041 0 0 1-74 215c-15 28-27 40-37 35l-148-63c-57-25-110-45-159-60zm-607 3513c32-19 80-45 143-77l212-107 239-117a23318 23318 0 0 0 401-197c47-24 77-38 86-44 21-11 35-15 40-12 5 4 5 15 0 34-9 34-19 59-27 76s-15 28-20 32a5276 5276 0 0 1-268 143l-242 121-253 128c-81 43-154 82-218 118-63 36-109 64-136 83l10-83c7-22 11-42 16-61 5-20 11-32 17-37zM2908 964c0 13-7 35-22 65a811 811 0 0 1-112 172c-20 23-35 35-45 35a2630 2630 0 0 1-177 37c-28 5-54 7-78 7-40 0-46-8-20-23a3237 3237 0 0 1 223-109 619 619 0 0 0 84-51c11-8 16-14 16-19s-12-8-36-7c-25 1-50-1-79-5-29-5-55-14-78-28-24-14-35-38-36-74 1-42 12-87 35-134 23-46 50-89 80-129 31-40 62-72 94-98 32-25 58-38 77-38 13 0 25 6 36 16 11 12 16 25 16 41a267 267 0 0 1-21 89c-6 16-14 29-24 39-9 12-19 17-29 16-9 1-14-1-17-3l-5-12c-2-4-3-8-6-10-2-3-7-5-16-5-6 0-16 5-29 13a334 334 0 0 0-74 69 84 84 0 0 0-16 27c1 14 7 24 20 29 12 7 28 11 47 13l63 5c22 2 43 4 62 8 20 4 36 11 49 20 12 11 18 25 18 44zm1524 674 592-284c22-11 36-15 40-12 5 4 5 16 0 34-9 34-18 59-27 76-8 17-15 28-20 32-25 33-315 153-492 251-63 37-109 64-136 84l10-84c7-21 11-41 16-60 4-20 11-32 17-37z"/>
</svg>
