<svg xmlns="http://www.w3.org/2000/svg" viewBox="0 0 475 987">
  <path d="M475 484c0 15-16 31-48 50-4 49-11 73-23 73-48-45-83-67-106-67 2 24 15 47 36 68 23 21 34 33 34 36 0 5-10 11-29 17-21 6-45 10-72 11-22 67-52 128-90 181-30 41-62 75-95 102-27 21-47 32-58 32-6 0-10-3-10-10 0-3 12-17 35-43a527 527 0 0 0 124-267c-31-5-47-12-47-21 44-44 66-79 66-103-23 0-56 23-100 69-6 0-12-8-18-25-5-16-9-33-10-52-33-17-50-33-50-46 0-12 16-27 47-45 3-50 12-75 26-75l32 31c21 21 45 33 71 35 0-22-11-45-34-67s-35-35-35-39c0-7 17-14 51-21-10-50-30-103-61-157C80 98 47 55 10 23 3 17 0 12 0 7s4-7 12-7c23 0 59 23 106 70 63 61 112 139 147 232 65 1 97 10 97 26-43 45-64 80-64 104 19 0 40-11 62-34 23-23 35-35 38-35 12 0 20 26 26 77 34 17 51 31 51 44zM328 332c0-3-15-5-43-9l-33 2A544 544 0 0 0 35 26a512 512 0 0 1 157 298c-25 2-37 5-37 10l20 19c16 14 29 31 38 51 12-26 23-39 32-39 12 0 23 13 31 39 9-21 20-38 34-53l17-19zm122 152c0-7-15-16-43-27-4-39-7-59-12-59-2 0-11 7-25 22-16 17-32 28-49 34 29 13 44 25 44 35s-14 21-43 31c8 3 21 13 37 30 15 15 28 23 39 23 6 0 9-19 9-55 28-17 43-28 43-34zm-145 3c0-16-6-30-18-41a60 60 0 0 0-42-17 60 60 0 0 0-60 58c0 16 5 31 17 42 12 12 26 18 43 18 16 0 30-6 42-18 12-11 18-26 18-42zm-136 34c-30-13-45-24-45-34 0-11 15-21 43-32-20-7-39-17-55-32l-20-20c-6 0-9 18-9 54-28 16-43 28-43 35 0 8 15 16 43 26 4 40 8 59 12 59 2 0 11-7 25-22 16-16 33-28 49-34zm163 117-18-18c-14-14-27-30-36-48-14 25-25 38-34 38-7 0-17-13-31-38-7 17-18 33-33 48l-20 21c0 3 5 6 15 8l21 4c-18 75-33 127-46 156-18 43-49 90-94 143 86-58 153-159 199-302l67-4c7-1 10-4 10-8z"/>
</svg>
