<svg xmlns="http://www.w3.org/2000/svg" viewBox="0 0 2847 3417">
  <path d="M2189 998c6 0 12 2 17 4l23 16 38 29 35 26c9 8 17 11 22 13l7 11c1 5 0 11-4 19-1 4-5 11-13 22l-19 31c-6 10-12 20-20 28l-12 18c0 8-5 12-13 12-2 0-7-3-14-9l-24-17-34-24-33-23c-10-7-15-12-16-15l-17-17c-3-2-3-9 2-18l34-54 31-41 4-8c1-2 3-3 6-3zm-235 20 12 5c3 4 11 10 23 19l38 28 37 25 21 13c5 4 8 8 10 12 1 4 0 10-4 19l-12 20c-5 10-12 20-19 30-8 11-15 21-20 31s-9 15-10 16l-8 8c-2 3-5 5-10 5-2 0-7-3-12-9l-23-14-34-25-33-26-21-16-14-15c-3-3-2-9 2-19l35-53 29-40c0-9 4-14 13-14zm262 2172c3 0 5 1 7 3l24 18 37 30 38 26 21 12 9 10c3 3 2 9-2 19l-11 19c-6 10-12 20-20 30s-14 20-20 30l-10 19-6 7c-3 3-7 4-13 4s-10-2-11-7l-23-16a2266 2266 0 0 1-72-52c-10-9-16-14-17-17-13-10-16-20-11-28l36-52 26-43c7-8 11-12 14-12h4zm492-789c6 0 10 1 12 4 4 1 12 8 24 17l38 30c12 10 25 19 36 26l21 12c9 6 11 15 5 25l-14 25c-4 9-11 20-18 31l-19 31-13 15c-5 6-9 9-13 9-6 0-10-1-12-3l-24-18-34-25a1318 1318 0 0 1-53-42c-5 0-7-3-7-10 1-6-1-12-6-17v-8l16-18 18-32 24-40 12-10 7-2zm-213 18 13 5 24 16 38 27 37 27 21 14 3 3c-2 7 0 12 6 17v10l-15 21a930 930 0 0 1-43 61l-11 17c-5 5-10 7-14 7s-8-1-11-4l-23-17-33-26-35-26-19-16c-16-10-21-20-15-31l34-52 27-41c5-3 8-6 9-9 1-2 4-3 7-3zm136 92c5 5 7 11 6 17-6-5-8-10-6-17zM825 358c6 0 4 8-6 25-23 55-41 101-54 138-14 36-17 73-10 107 2 18 9 35 21 50 12 16 25 23 39 23 15 0 28-6 41-18 12-11 25-31 36-59 4-13 9-20 17-20 3 0 5 8 4 22-1 15-8 38-24 72-11 30-24 53-39 67a72 72 0 0 1-47 20h-7c0-16-6-25-18-25-5 0-10 4-16 11-14-12-25-24-33-38a202 202 0 0 1-25-146 553 553 0 0 1 72-175l27-41c8-9 15-13 22-13zM218 1447c14 0 14 22 0 67l-47 154c-15 46-27 89-36 128-9 40-15 77-18 113s-2 71 3 107c4 39 18 75 41 106 24 32 49 48 75 48 15 0 30-8 43-24s24-44 34-83l10-22c3-6 6-9 11-9 6 0 9 9 10 27s-4 43-15 75c-19 73-40 123-63 150-22 27-45 40-69 40-15 0-29-5-44-16s-29-24-40-41c-13-16-22-33-31-52a627 627 0 0 1-31-277 1097 1097 0 0 1 96-366l41-85c12-26 23-40 30-40zm1052 1537c3 0 3 8 0 25-22 43-39 81-53 112-14 33-17 63-10 92 3 13 9 27 20 41 11 15 24 21 40 21 9 0 20-4 31-14 13-9 24-27 36-53 5-10 9-15 13-15 3 0 4 5 3 16s-8 32-21 61c-17 52-42 77-77 77-19 0-37-9-52-26s-25-34-29-51c-10-31-13-61-8-91a355 355 0 0 1 61-149c13-17 21-29 24-36 5-5 9-9 13-9l9-1zm902-2297c7 0 7 4 0 11l-5 21c0 5-3 9-8 13-3 6-8 10-12 12l-24 16c-6 5-23 15-51 29l-92 46-91 44-47 21c-6 6-11 9-14 9s-5-5-5-13l8-34c-2-1-2-3 0-5 2-3 8-9 20-16 5-4 22-13 50-28l94-47 95-47 53-25c13-5 22-7 29-7zm371 562c7 0 8 3 4 11l-7 23-5 12c-4 7-8 12-13 15a592 592 0 0 1-71 39 3572 3572 0 0 1-145 81 384 384 0 0 1-56 28c-2 0-3-4-3-11l5-25 2-5 2-4-2-5c0-5 5-11 16-18a1186 1186 0 0 1 121-70l79-42a414 414 0 0 1 73-29zm-196 1347c2 0 3 6 3 17l-12 35c-3 7-7 11-11 14l-27 12-51 23-95 41-92 41-50 22c-7 7-12 10-16 10-2 0-3-7-3-21l7-31c-2-1-2-4 0-8l21-14 53-23 96-42c35-15 66-29 96-40l58-24c6-2 11-5 14-8s6-4 9-4zm-678-345c7 0 8 5 3 16l-6 17-4 19c-2 8-14 15-40 21-7 2-22 10-45 22l-73 40-73 39c-21 13-34 20-38 24-5 6-10 9-14 9s-6-5-6-14l8-27 2-12c-3 0-3-2 0-4l5-5 12-6 44-25 75-41a2358 2358 0 0 1 150-73zm-920-750c5 0 5 5 0 16-6 7-9 12-9 15l-7 17c-2 7-5 12-9 15-3 3-11 8-23 14-5 1-17 8-36 21l-75 47-95 61-94 59-73 47a605 605 0 0 1-51 30c-3 0-3-4-3-13l5-29 1-10c-2 0-2-1 0-4l8-5c3-3 8-5 14-8 5-1 18-8 40-22l75-49 94-60 94-61 76-47c22-13 34-20 38-21 11-9 21-13 30-13zm1174-202c7 0 9 5 5 14l-8 21-4 11c-3 8-6 12-12 15l-27 14-39 17-76 35a4842 4842 0 0 1-188 88l-74 36-33 17c-9 5-16 7-22 7-2 0-3-4-3-10 1-16 3-25 7-29 3-2 5-5 5-7-6-1-6-3 0-6 1-3 8-9 20-17a1510 1510 0 0 0 116-48c30-14 63-29 97-47l99-48 76-35c20-9 32-16 36-19 13-6 21-9 25-9zM1261 73c7 0 9 6 6 18l-9 17c-1 3-2 7-6 12-4 7-7 12-11 15l-21 15c-7 3-25 14-54 33l-95 64c-35 22-66 44-94 63-29 19-45 29-49 30-8 4-15 5-19 5-3 0-4-4-4-12l7-25 2-11c0-3 0-4 2-5 2-7 9-12 19-15 5-1 15-7 30-16l54-34a1544 1544 0 0 0 135-90l54-37 28-18c13-6 21-9 25-9zm658 294c11 0 22 4 33 12 12 7 22 23 30 47l-2 12-4 16-7 22-3 6c0 2-2 3-6 3-5 0-6-5-6-14-2-9-16-20-42-33-2-2-7-3-14-3-12 0-23 11-31 34s-14 48-18 77a1040 1040 0 0 0-14 123c0 12-2 18-7 18-2 0-6-6-11-18a281 281 0 0 0-55-98 430 430 0 0 0-47-47v-1c-2 0-4-2-5-4v4l-4 5c-2 3-5 5-7 5-12 0-30-9-55-27-10-5-15-10-15-17v-13l13-22 16-28c0-6 4-9 11-9 6 0 10 2 12 5a410 410 0 0 1 108 104c11 16 18 29 23 41s8 20 11 23l18-89 10-63a92 92 0 0 1 47-68c4-2 10-3 21-3zM671 2378c10 3 17 6 21 10 6 5 11 14 15 25 5 12 5 28 1 48a560 560 0 0 1-87 131c-15 19-33 35-57 46a375 375 0 0 1-134 42l-42 5c-17 2-24-1-23-11 2-9 11-15 27-17a449 449 0 0 0 229-133c4-5 3-8-3-9l-27-4-37-3c-13-1-24-4-34-9-13-6-20-17-21-34-1-16 0-34 4-54l16-58 12-44c7-22 19-44 36-66 18-21 32-35 41-41 8-6 15-8 20-6 4 2 7 4 7 6l1 13v47l-1 14c-4 2-6 3-7 2l-27 8c-17 10-27 19-30 28l-10 33c-1 6 3 11 13 14a412 412 0 0 0 96 16zm409-2074c3 0 6 4 11 11a384 384 0 0 1 84 139 407 407 0 0 1-7 307c0 9-4 14-13 14-6 0-9-7-9-22l9-50a414 414 0 0 0-24-205c-15-39-39-77-72-111-9-8-13-11-15-10l2-3 4-9 4-11 5-18 8-18c3-10 7-14 13-14zM762 771l34 14-2 6a559 559 0 0 0-41 175c-2 48 1 90 10 125 10 36 25 66 45 90a368 368 0 0 0 158 109c19 6 38 10 58 13l60 10 25 130h-21a473 473 0 0 1-199-37 358 358 0 0 1-199-243c-10-47-13-92-9-135a619 619 0 0 1 59-212c12-24 19-38 22-41v-4zM1390 0c2 0 7 5 14 14l25 40a2265 2265 0 0 1 125 232c9 23 12 38 12 47-1 8-3 12-8 12-9 0-15-2-20-9-6-3-15-13-27-29s-24-27-37-33c-3-3-5-4-7-4-7 0-7 15 0 45l10 77 15 87 15 83 12 66c5 28 6 57 1 85a596 596 0 0 1-49 142c-9 18-18 30-26 38h36a1132 1132 0 0 1 95 4 310 310 0 0 1 102 28c18 12 29 26 36 42 6 16 8 32 8 48-1 16-4 32-8 47-4 16-7 31-8 46-7 27-16 47-25 60a1020 1020 0 0 1-496 271l-21-131c56-9 111-23 165-43a1191 1191 0 0 0 290-157l30-23c12-9 15-15 9-19-24-14-59-24-106-31-46-7-93-11-140-13-47-3-90-4-131-5-39 0-64-2-74-3-9 0-14-5-12-14 1-10 5-21 12-36l25-44 25-40c74-15 127-32 159-50 31-18 47-33 47-45l-10-50c-6-30-13-66-20-111-6-44-14-90-25-139l-27-138a4662 4662 0 0 0-33-174c-2-2-5-6-8-14-6-7-10-12-10-17-1-4 1-11 4-22l16-47c5-17 11-35 18-50 11-15 18-23 22-23zM778 760c-5 0-10 4-16 11l34 14c0-16-6-25-18-25zm1919 1060c2 9 5 30 8 62a501 501 0 0 1-36 251c-21 49-54 96-101 143-78 76-152 134-221 174s-131 69-186 86a539 539 0 0 1-195 27c-81-12-139-40-172-81-33-43-54-88-61-136-8-48-9-92-2-133a1156 1156 0 0 1 23-98c4-5 8-8 12-8s7 3 9 9 2 18 0 36c-3 54 5 100 22 138s42 67 74 88c32 20 70 33 116 41a457 457 0 0 0 256-44c40-19 78-41 115-66a2197 2197 0 0 0 259-233c17-19 27-32 30-38 11-14 13-25 6-33-8-6-18-11-31-13-14-2-29-3-46-3h-33c-31 3-66 2-103-3s-65-19-84-41a251 251 0 0 1-15-211c10-28 24-51 41-68 17-19 29-32 36-42 10-8 27-14 52-19 24-3 50-1 78 9 28 11 55 32 82 63s50 79 67 143zm-246 23 44 2h71l26-2c-20-31-40-55-59-69-20-15-37-25-54-29s-30-4-42-1c-11 4-19 8-22 13-7 12-14 19-19 23s-10 8-11 15c-3 6 0 16 10 29 10 12 28 19 56 19zm-256-65c8 28 11 64 7 109-4 46-13 93-27 141-8 24-22 45-41 62a355 355 0 0 1-127 75l-57 17c-46 5-86 2-122-10a441 441 0 0 1-158-94c-16-17-26-29-30-37-105 75-201 128-290 158-88 31-169 55-245 73-96 14-178 15-246 1-67-14-124-36-171-66s-84-65-110-106a544 544 0 0 1-86-233c-3-32-6-54-6-65l-8-63-16-115-20-145c-6-54-14-108-22-162l-24-155-21-131c-4-15-5-26-3-33l7-22c2-9 8-21 16-38 8-18 16-32 23-43 8-15 15-22 18-19 4 4 8 17 11 41l9 59 17 87a1737 1737 0 0 1 26 169l12 101 15 149c4 53 10 102 16 147l12 93c6 53 15 99 25 136 11 38 24 71 38 99a271 271 0 0 0 113 117c53 32 111 53 172 63 62 10 122 10 181 2 59-7 116-20 173-38a1294 1294 0 0 0 254-112c27-17 43-29 48-35a196 196 0 0 0-149-87c-21 0-42 4-61 10-19 8-31 14-39 19-8 6-14 9-19 6-4-2-6-7-6-14s2-16 6-25c5-10 11-19 19-30-2-27 3-46 14-57 13-11 20-20 24-28a736 736 0 0 1 382-91c53 2 97 7 132 14l67 17c17 7 28 15 33 25 5 9 8 20 8 32 0 11-1 24-5 40l-10 44c-4 16-10 26-17 31-7 6-16 10-29 14-9 2-21 8-36 17l-47 28-44 27-27 17c43 43 85 67 131 72 44 6 85 3 122-6a286 286 0 0 0 132-75c11-7 15-12 11-16l-5-16-10-33a298 298 0 0 0-29-70c-13-17-24-38-34-61a1715 1715 0 0 1-48-133 117 117 0 0 0-21-43l-10-16c-8-6-12-12-13-17s-1-11 2-19a345 345 0 0 0 15-56 381 381 0 0 1 15-51c5-12 12-14 21-7a1591 1591 0 0 0 70 76 1736 1736 0 0 1 79 88c11 15 15 23 11 26s-9 4-14 1l-65-27c-8-3-12-3-12 2l7 18a673 673 0 0 1 34 63l52 114zm-607 25c4 3 10 7 18 15a480 480 0 0 1 50 50c7 8 13 15 16 21 4-1 12-5 23-13s23-17 38-26c13-10 26-18 39-26l24-17a294 294 0 0 0-142-16c-22 2-44 6-66 12zm1170 968 12 35 10 38a579 579 0 0 1 0 195c-5 34-17 60-36 80s-41 36-67 48a450 450 0 0 1-165 35c-24 0-48-5-71-15-22-10-44-25-64-45a220 220 0 0 1-66-151c-42 44-86 80-133 107a1075 1075 0 0 1-245 105c-33 9-58 15-75 17-84 18-158 20-220 6a382 382 0 0 1-268-207c-30-54-54-115-72-181-19-66-33-135-44-206-11-72-19-144-25-215a12403 12403 0 0 0-65-496l-43-299-44-277-36-212a966 966 0 0 0-33-150c-1-11 1-21 5-29s11-16 18-25c8-10 15-25 23-45 4-13 8-21 11-22 3-2 7 0 12 6 5 7 8 16 11 27l12 39a16432 16432 0 0 1 125 728c15 99 26 191 36 275a16455 16455 0 0 0 95 730c8 47 18 88 29 124a714 714 0 0 0 73 160c11 18 21 32 28 40a448 448 0 0 0 339 109c55-4 109-15 160-35a1148 1148 0 0 0 342-206c30-26 50-39 59-39 10 1 14 8 13 22-2 13-5 29-11 46l-11 35c20 57 47 95 80 114 33 18 66 28 99 28s64-6 91-17c28-10 45-17 54-19 25-11 38-26 38-45 0-4-3-12-7-23l-13-39-16-40c-4-13-11-23-18-30-12-17-19-29-21-35-2-7-1-16 1-27l8-31 16-54c6-11 13-15 19-13 6 1 12 6 19 15 6 10 12 20 17 32l14 32zm-2197-50c4 0 6 3 8 10 1 6-2 14-8 24-22 44-39 83-50 117-12 34-19 64-21 89a210 210 0 0 0 18 114c20 44 45 75 74 90a172 172 0 0 0 164 7 485 485 0 0 0 127-84 2800 2800 0 0 1 252-209c70-52 128-93 172-122l9 55c2 21 6 41 12 63l-16 9c-16 8-42 25-74 50a3781 3781 0 0 0-267 225 430 430 0 0 1-151 124c-48 20-91 30-129 30-37 0-71-8-102-23-30-16-51-32-62-48-43-56-67-113-71-169a504 504 0 0 1 56-278c17-33 28-52 32-58 9-11 18-16 27-16zm1108-113c40 0 69 7 87 19 17 13 29 22 36 30 24 21 40 44 49 69a293 293 0 0 1 10 160c-4 11-9 17-12 17-4 0-8-6-11-17l-18-34-14-31c-6-9-16-20-31-32-10-8-25-16-43-24-19-6-42-10-69-10-32 0-70 6-114 17-43 11-95 32-156 62l-16-56c-8-21-13-41-17-61a853 853 0 0 1 260-102c24-5 43-7 59-7zm-728-834 9 71 19 106c8 36 14 71 20 104l14 67 9 65c5 31 10 66 13 101l14 99c5 31 7 51 7 62 0 20-4 51-13 94-9 42-19 83-30 120-6 22-22 44-47 68-26 23-55 46-89 69a3127 3127 0 0 1-182 114c-97 48-182 75-255 80-73 7-135 3-185-11s-89-32-117-54c-28-23-46-41-53-54-42-66-66-132-72-199a635 635 0 0 1 88-390c12-15 22-20 29-13 7 6 5 19-4 36-33 85-52 157-55 214-3 58 3 107 17 146 15 40 33 70 57 93 23 23 44 40 62 52 57 27 115 42 176 43a765 765 0 0 0 335-81 1266 1266 0 0 0 223-142l38-33 14-24c2-4 2-11 2-19l-10-68-29-160-39-206a8661 8661 0 0 1-67-368l-10-71c-4-8-5-16-5-23 1-7-2-14-10-20-10-8-17-15-19-20-3-6-3-11 0-17 4-6 10-20 19-41l27-59c9-17 16-27 21-28 6-2 10 0 13 6 2 1 7 9 16 25l33 58 41 73 41 74 33 59 19 31c3 16 2 25-5 28-8 3-16-2-26-15l-13-13-23-24c-7-9-16-17-25-26l-19-18c-7-6-12-7-14-5l-2 14 2 19c2 7 4 10 7 11z"/>
</svg>
