<svg xmlns="http://www.w3.org/2000/svg" viewBox="0 0 2636 826">
  <path d="M2545 245c4 5 7 10 7 15 0 6-3 13-9 22-6 8-11 12-14 12l-5-3c-2-3-4-4-5-4l-6-3c-9-5-14-8-14-10 0-4 1-7 3-10l4-6 3-3 4-11c2-7 6-11 10-11 5 0 13 4 22 12zm-110-40h-1c-2 0-3-1-3-3l1-5 1-4 3-11c1-4 4-6 8-8l15-6 122-53 12-7 5-2c3 0 5 3 5 9l-2 9-2 7c-3 4-10 9-23 14l-21 8-94 41-13 6c-4 3-9 4-13 5zm50 536 4 2 1 6c0 12-4 20-12 23l-5 3-16 7-75 29-37 15h-4c-3 0-5-2-5-7l2-11 4-10 44-17 31-11 23-9 13-5 13-6 12-7 6-2h1zm-200-154c2-2 3-3 5-3l12 5c9 5 15 10 18 14 4 4 5 8 5 12 0 3 0 6-2 9-2 5-6 10-10 14-5 5-8 7-11 7h-2l-18-9-12-7c-2 0-5 2-8 7l-9 11-4 5c-5 5-8 8-10 7l-7-1-7-5-14-6-9-4c-3-2-4-4-4-6l3-8 5-11c3-6 5-11 8-14 2-3 4-5 6-5 5 0 12 3 21 8l15 8 4 1c6 0 13-7 21-22l4-7zm276-193c-4 0-8 2-14 6-5 4-9 10-13 18l-2 7c0 5 3 10 9 14 6 3 13 6 22 8h2c4 0 9-2 16-5 7-4 10-8 10-11v-2l-10-18c-8-12-14-17-20-17zm70 109-5 21-2 6c-3 12-11 22-25 30s-31 14-53 17l-40 5h-3l-3-1h-11l-2 2-3 16-10 22-18 34c-11 20-23 35-35 45l-31 22c-18 11-37 17-56 17-20 0-43-4-68-13-7-2-17-5-29-6-13-2-22-5-29-7l-15-5c-12-3-18-7-18-12l3-6c2-3 5-4 7-4 4 0 8 1 11 3l5 3c2 2 9 4 20 6l10 1c21 4 41 6 60 6 40 0 71-9 92-27l2-1 6-4 8-5 20-18 15-15c6-6 14-16 21-29l6-9 6-11 3-6c0-2-1-2-2-3l-9-3-2-2-13-9c-7-6-10-12-10-20v-5l5-18c3-9 5-14 7-14l3 2c4 8 7 13 11 15 9 5 20 8 33 9l15 1h10a173 173 0 0 0 83-21c6-4 10-6 12-9 2-2 3-4 3-7v-2l-4-14-5-16-5-9v3l-4 8c-4 8-7 13-9 14l-7 6-6 4-6 4-10 2c-7 0-15-3-24-9-8-5-14-11-16-17l-5-10-2-5-1-8v-3l3-22c3-23 13-44 29-63 7-9 15-13 22-13 9 0 19 7 30 21s20 31 28 52c8 20 12 38 12 54 0 11-2 21-5 30zm-653-139c4 2 5 5 5 8 0 4-3 10-9 19-6 8-11 13-16 13s-11-3-20-8l-18-11c-2-3-4-5-4-8 0-4 2-9 6-13l5-10 6-12 6-3 6 2 6 5 27 18zm-187-52-3 1c-2 0-3-2-3-5l1-5 1-4 2-12c1-2 3-5 7-6l5-3 22-10 73-35 53-27 22-10 7-4 8-3c4 0 6 4 6 11 0 10-7 19-21 25l-69 32-68 34-35 19-8 2zM1442 88l-8 3c-2 0-4-2-4-6l4-17 1-4c1-3 8-7 21-12l7-3 74-36 22-12 8-1c4 0 7 4 7 12 0 7-4 13-12 17l-28 12-21 11-28 14-43 22zm20 117h2c5 0 12 4 21 13 8 8 13 14 13 19 0 3-3 9-8 18s-10 14-14 14l-6-3-8-6-4-3-8-3h-2c-4 0-8 4-12 13l-9 14-4 2c-5 0-12-2-21-7s-13-9-13-13c0-6 1-11 4-15 2-3 4-6 4-9v-1l1-3 2-2 1-2 2-3 2-3 4-2 15 8c8 5 13 8 16 8l3-1 5-9 4-4v-3l1-4 5-7c1-3 2-5 4-6zm675 291c3-2 4-4 4-6 0-6-8-12-22-20-14-7-28-10-42-10-15 0-31 6-46 18l-35 30-15 13-8 7-7 7-5 4-8 6c-6 4-9 7-10 9h4l30-2 13-2 11-2h10c40-2 82-19 125-51l1-1zm-651-12-3-10-8-33c0 2-9 8-27 18l-45 25c-12 8-18 13-18 17 0 2 11 3 35 3l27-1 17-6c15-3 22-7 22-11v-2zm689 89-4 1-15 2-14 4c-8 2-16 3-25 3l-34 4-6 1-47 3-23 4-25 4-60 4h-6l-14-1-8-3-10-1c-7 0-13 8-17 24l-4 14-11 29-8 18-4 8-6 6c-2 0-3-2-3-6 0-7 3-17 8-30l13-33 11-33v-2l-4-6-9-5-9-6-14-8-3 1-3 5c-1 3-6 7-14 12-8 6-19 10-32 15s-28 9-44 12l-31 4-10 2-9 1-11 1-12 1-7 2h-1l-3-1-18-2-22-2-20-3c-19-3-34-10-47-21-14-11-25-27-35-47l-5-12v-1l-1-3c-4-15-7-24-9-24l-20 25-18 9-8 4c-11 5-24 8-39 8l-29-3-6-1c-5 0-9-1-12-3-4-2-5-5-5-7l3-12 8-22c3-14 13-29 28-43 15-15 33-28 54-40 13-6 20-11 22-13v-5l-2-21-1-10 1-16c2-19 5-29 9-29 3 0 4 3 6 9l3 27c1 10 3 21 7 34l7 26 3 13 5 21c9 35 22 62 38 79 16 18 41 29 75 33l30 3h23l17-1 66-11c36-6 59-19 71-36l11-18c4-6 7-9 10-9l3 2c1 1 2 3 2 7 0 2-1 6-4 11l-4 12 1 3v-1h1l8 3 7 4 2 1 8 3 7 2c8 3 15 4 21 4s14-3 22-9l29-23 81-72c27-23 48-34 65-34a84 84 0 0 1 62 26 42 42 0 0 1 8 40l-11 31-12 19-4 8 5-1 10-2 10-2 6-1 15-4 42-11c6-1 16-5 28-11l15-9 3-2 3-3 1-3-5-17c-4-9-10-19-19-32l-12-16c-9-10-13-17-13-21l1-4a383 383 0 0 1 7-15v-5l5-13 4-3c2 0 4 1 7 4l23 30 18 30 3 10 2 9 1 10 1 15c0 7-2 16-8 26l-12 24c-5 8-11 15-17 19a277 277 0 0 1-86 34h-1l-1 1zm-803-401c-15 8-26 12-33 12-3 0-4-2-4-6l3-14 5-9 13-6 14-4 25-11 15-4 18-9 33-16 8-4 5-2h3c3 0 5 3 5 8 0 10-3 16-9 20-14 9-31 17-49 24-25 9-42 17-52 22zm-169 416-17 7-36 16-47 20-34 14c-5 3-10 4-14 4-3 0-4-1-4-4v-2l2-7v-6c1-5 3-8 7-10l20-7 5-2 27-12 10-4 61-26c19-10 32-15 37-16l3-1c5 0 8 3 8 8l-3 12c-1 4-5 8-11 10l-14 6zm-177-300c-4-5-6-11-6-18 0-6 2-12 4-19 3-7 6-11 8-11s4 2 4 7l-1 6c0 4 2 7 5 10s7 4 12 4c8 0 13-1 17-3 4-3 6-5 6-9v-3l-1-13c0-19 3-28 10-28 5 0 7 4 7 12v12c1 12 4 18 10 18l11-3 11-5c2-2 3-5 3-8v-8l-2-7v-4l1-9c3-11 7-16 10-16 2 0 4 4 5 12l2 33c0 8-2 16-6 23a56 56 0 0 1-41 22l-6-2-5-1c-2 0-5 2-8 5l-6 5c-5 5-13 7-23 7s-17-3-21-9zm-187 90v2c0 5-3 12-8 20-5 9-9 13-12 13l-7-3-4-4-11-5c-6-2-11-4-14-7-3-2-5-5-5-9l1-3 6-14 2-6c2-11 6-16 13-16 4 0 10 3 19 9l6 5c7 5 11 11 14 18zM700 275c0-3 0-5 2-7l2-7v-5c0-3 2-5 6-7 3-3 24-14 62-33l49-23 8-4 23-12 9-4c17-9 27-14 31-14l4 3 1 8-3 12c-2 4-5 7-8 8l-8 3-17 9-18 8-20 10-38 18-28 13-17 11c-20 11-32 17-37 17-2 0-3-1-3-4zm380 145 1 1 3-4 4-7c6-7 13-10 21-10 5 0 9 2 13 6 4 3 9 9 14 19l4 8 1 5 5 14 1 3h-3c-10 0-19-2-27-5l-16-6-24-10c-2-2-4-3-4-5l7-9zm-24 52a147 147 0 0 0 101 29c3 0 6-2 8-7l6-23c2-4 2-10 2-16a203 203 0 0 0-19-72c-9-20-20-31-34-31-16 0-31 16-46 46l-8 15-2 5-1 6-3 6-7 14-5 9-6 8-6 9c-3 4-9 7-19 10-11 4-21 5-33 5h-4l-24-2-8-2-9-12-4-8-4-8-8-15c-3-6-6-9-8-9l-5 4-2 12-1 5-1 3c-2 4-4 8-4 12 0 7 4 17 11 29l13 22 10 32 2 11 3 12 1 13c0 7-3 14-10 22l-7 6a200 200 0 0 1-188 33c-17-8-29-19-36-33-7-13-10-27-10-42 0-7 1-15 4-23l2-11 8-20a73 73 0 0 0 7-22c0-6-1-8-3-8s-3 1-4 3l-2 3-3 7-13 25a232 232 0 0 0-18 81l1 7 3 21 11 22 5 9c6 13 19 23 37 30 18 8 40 11 67 11 31 0 60-6 86-18s46-28 60-50c14-21 21-44 21-69l-1-26v-8c0-2 1-3 2-3l4-1 10 2 9 1c7 0 16-3 28-9 13-5 22-13 27-23 9-20 15-30 17-30v1zm-639 43 1 8c0 8-2 18-6 30l-6 22c-4 16-11 24-22 24-19 0-41-9-65-28l-9-8-9-10-2-4-9-14-2-3-1 2-2 7-1 2c-5 15-11 26-17 34a98 98 0 0 1-68 39c-15 0-28-4-38-12s-17-21-20-38l-5-30c0 2-1 3-3 5l-7 7-13 10a91 91 0 0 1-49 18l-24 2-12 1c-19 0-28-5-28-14l6-18c2-4 4-7 4-11l9-18 4-5c18-25 43-46 75-61l8-3c12-4 19-8 22-11 4-3 6-8 8-16l1-9 3-12c3-11 6-17 9-17 2 0 3 4 4 11l-1 21 4 64 3 30c3 38 20 57 50 57 10 0 21-4 34-11 12-7 22-16 28-25 7-10 10-20 10-31v-4l-7-48-1-8-8-48-1-8v-5l4-15 1-9c2-11 5-16 7-16s4 2 5 5l2 8 2 13 2 8 3 17 3 19v7l1 7 9 53c6 27 22 48 50 62l9 4c11 5 19 8 24 8 8 0 12-3 12-8a442 442 0 0 1-45-119l-6-24-3-23 2-17 6-22c1-3 2-5 4-5l5 5 4 15 4 24a480 480 0 0 0 29 81c10 19 15 34 16 43l3 15zm-283-1v-21l-3-22-22 11-15 7c-19 9-35 19-50 30-6 4-8 7-8 9s6 3 19 3c10-1 19-1 26-3l15-2c18-2 30-6 38-12zm39 180c0 8-5 14-16 18l-6 3-37 14-28 12-40 14c-11 6-19 9-23 9-3 0-5-2-5-4 0-3 0-6 2-8l1-3 1-4 1-5c1-3 3-6 6-7l25-7 18-8 34-14 26-10 7-2c11-6 20-9 25-9 6 0 9 4 9 11zm10-550-1-3 1-1v-5l3-9c1-7 3-11 6-12l7-3c8-2 14-5 18-8l28-14 29-12 42-21 24-13h2c4 0 6 2 6 8 0 11-4 18-11 22l-57 28-7 3-22 10-19 9-19 10-4 2c-11 8-19 11-22 11l-4-2zm46 73-2 7c0 4 3 7 9 7 9 0 16-2 20-4 4-3 7-8 7-16l4-21c2-6 5-9 7-9l3 3 2 7-2 20 2 6c2 3 4 4 7 4 5 0 12-3 23-9 3-1 4-4 4-8l-2-20 2-17c2-5 4-8 7-8 2 0 4 4 5 10 2 7 2 14 2 23v-1l1 15c0 7-1 14-4 19s-8 10-15 15l-8 4c-8 4-15 6-21 6h-2l-9-1c-3 0-5 1-9 5l-3 2c-7 4-15 6-22 6-16 0-23-7-23-20l1-11 1-10 6-13 6-4c3 0 4 2 4 6l-1 7zM573 57c0 14-10 30-29 46a93 93 0 0 1-60 24c-6 0-17-2-31-7l-5-3-6-3c-3 0-6 2-10 5-3 3-6 6-7 10l-5 13c-2 3-4 4-6 4-3 0-4-2-4-8 0-11 4-21 10-30l9-12 6-6c4-5 8-7 13-7 2 0 5 1 10 5 4 3 8 5 11 5s6-2 7-6c9-19 24-39 45-60 5-5 11-8 19-8 14 0 23 6 28 18 3 8 5 14 5 20zm-18 8 1-1-1-3c-6-7-12-11-19-11s-15 4-24 12c-9 9-18 19-26 33h17l7-2 6-2c16-4 29-13 39-26zm-37 462v5l-1 13-2 21c0 7-2 14-4 21-4 8-7 13-9 13v-3l-5-53-8-70-7-51-15-71-2-17-12-69c-4-20-6-36-6-47v-13l5-28c2-12 4-18 8-18 2 0 3 5 4 14v9l1 9 1 8 2 8c4 14 8 32 11 56 3 23 9 57 18 100l4 24 6 42 5 34 1 14 5 37v12z" class="fil0"/>
</svg>
