<?xml version="1.0" encoding="UTF-8"?>
<!DOCTYPE svg PUBLIC "-//W3C//DTD SVG 1.1//EN" "http://www.w3.org/Graphics/SVG/1.1/DTD/svg11.dtd">
<!-- Creator: CorelDRAW -->
<svg xmlns="http://www.w3.org/2000/svg" xml:space="preserve" width="4.12066in" height="1.29122in" version="1.1" style="shape-rendering:geometricPrecision; text-rendering:geometricPrecision; image-rendering:optimizeQuality; fill-rule:evenodd; clip-rule:evenodd"
viewBox="0 0 3432.41 1075.55"
 xmlns:xlink="http://www.w3.org/1999/xlink"
 xmlns:xodm="http://www.corel.com/coreldraw/odm/2003">
 <defs>
  <style type="text/css">
   <![CDATA[
    .fil0 {fill:var(--md-sys-color-tertiary)}
    .fil1 {fill:#006064;fill-rule:nonzero}
   ]]>
  </style>
 </defs>
 <g id="Layer_x0020_1">
  <metadata id="CorelCorpID_0Corel-Layer"/>
  <g id="_2130325457616">
   <path class="fil0" d="M674.5 686.22l0 6.51 -1.3 16.93 -2.6 27.34c0,9.12 -2.6,18.23 -5.21,27.34 -5.21,10.42 -9.12,16.93 -11.72,16.93l0 -3.91 -6.51 -69.01 -10.42 -91.15 -9.11 -66.41 -19.53 -92.45 -2.6 -22.14 -15.63 -89.85c-5.21,-26.04 -7.81,-46.88 -7.81,-61.2l0 -16.93 6.51 -36.46c2.6,-15.63 5.21,-23.44 10.42,-23.44 2.6,0 3.91,6.51 5.21,18.23l0 11.72 1.3 11.72 1.3 10.42 2.6 10.42c5.21,18.23 10.42,41.67 14.32,72.92 3.91,29.95 11.72,74.22 23.44,130.21l5.21 31.25 7.81 54.69 6.51 44.27 1.31 18.23 6.51 48.18 0 15.62 0 0z"/>
   <path class="fil0" d="M746.12 74.22c0,18.23 -13.02,39.06 -37.76,59.9 -21.45,19.4 -49.2,30.51 -78.13,31.25 -7.81,0 -22.14,-2.6 -40.37,-9.12l-6.51 -3.91 -7.81 -3.91c-3.91,0 -7.81,2.6 -13.02,6.51 -3.91,3.91 -7.81,7.81 -9.11,13.02l-6.51 16.93c-2.6,3.91 -5.21,5.21 -7.81,5.21 -3.91,0 -5.21,-2.61 -5.21,-10.42 0,-14.32 5.21,-27.34 13.02,-39.06l11.72 -15.62 7.81 -7.81c5.21,-6.51 10.42,-9.11 16.93,-9.11 2.6,0 6.51,1.3 13.02,6.51 5.21,3.91 10.42,6.51 14.32,6.51 3.91,0 7.81,-2.6 9.12,-7.81 11.72,-24.74 31.25,-50.78 58.59,-78.13 6.51,-6.51 14.32,-10.42 24.74,-10.42 18.23,0 29.95,7.81 36.46,23.44 3.91,10.42 6.51,18.23 6.51,26.04l0 0.01zm-23.44 10.42l1.3 -1.3 -1.3 -3.91c-7.81,-9.11 -15.62,-14.32 -24.74,-14.32 -9.11,0 -19.53,5.21 -31.25,15.62 -11.72,11.72 -23.44,24.74 -33.86,42.97l22.14 0 9.12 -2.6 7.81 -2.6c20.83,-5.21 37.76,-16.93 50.78,-33.86z"/>
   <path class="fil0" d="M298.19 282.56l-2.61 9.12c0,5.21 3.91,9.11 11.72,9.11 11.72,0 20.83,-2.6 26.04,-5.21 5.21,-3.91 9.12,-10.42 9.12,-20.83l5.21 -27.34c2.6,-7.81 6.51,-11.72 9.11,-11.72l3.91 3.91 2.6 9.12 -2.6 26.04 2.6 7.81c2.6,3.91 5.21,5.21 9.11,5.21 6.51,0 15.63,-3.91 29.95,-11.72 3.91,-1.3 5.21,-5.21 5.21,-10.42l-2.61 -26.04 2.61 -22.14c2.6,-6.51 5.21,-10.42 9.11,-10.42 2.6,0 5.21,5.21 6.51,13.02 2.6,9.12 2.6,18.23 2.6,29.95l0 -1.3 1.3 19.53c0,9.12 -1.3,18.23 -5.21,24.74 -3.91,6.51 -10.42,13.02 -19.53,19.53l-10.42 5.21c-10.42,5.21 -19.53,7.81 -27.34,7.81l-2.61 0 -11.72 -1.3c-3.91,0 -6.51,1.3 -11.72,6.51l-3.91 2.6c-9.11,5.21 -19.53,7.81 -28.65,7.81 -20.83,0 -29.95,-9.12 -29.95,-26.05l1.3 -14.32 1.3 -13.02 7.81 -16.93 7.81 -5.21c3.91,0 5.21,2.61 5.21,7.81l-1.31 9.11 0 0z"/>
   <path class="fil0" d="M238.29 187.5l-1.3 -3.91 1.3 -1.3 0 -6.51 3.91 -11.72c1.3,-9.12 3.91,-14.32 7.81,-15.63l9.11 -3.91c10.42,-2.6 18.23,-6.51 23.44,-10.42l36.46 -18.23 37.76 -15.63 54.69 -27.34 31.25 -16.93 2.6 0c5.21,0 7.81,2.6 7.81,10.42 0,14.32 -5.21,23.44 -14.32,28.65l-74.22 36.46 -9.12 3.91 -28.65 13.02 -24.74 11.72 -24.74 13.02 -5.21 2.61c-14.32,10.42 -24.74,14.32 -28.65,14.32l-5.21 -2.6 0 0z"/>
   <path class="fil0" d="M225.27 903.67c0,10.42 -6.51,18.23 -20.83,23.44l-7.81 3.91 -48.18 18.23 -36.46 15.63 -52.09 18.23c-14.32,7.81 -24.74,11.72 -29.95,11.72 -3.91,0 -6.51,-2.61 -6.51,-5.21 0,-3.91 0,-7.81 2.6,-10.42l1.3 -3.91 1.3 -5.21 1.3 -6.51c1.3,-3.91 3.91,-7.81 7.81,-9.11l32.55 -9.12 23.44 -10.42 44.27 -18.23 33.86 -13.02 9.11 -2.6c14.32,-7.81 26.04,-11.72 32.55,-11.72 7.81,0 11.72,5.21 11.72,14.32l0 0z"/>
   <path class="fil0" d="M542.99 670.59l1.3 10.42c0,10.42 -2.6,23.44 -7.81,39.06l-7.81 28.65c-5.21,20.83 -14.32,31.25 -28.65,31.25 -24.74,0 -53.39,-11.72 -84.64,-36.46l-11.72 -10.42 -11.72 -13.02 -2.6 -5.21 -11.72 -18.23 -2.6 -3.91 -1.3 2.6 -2.6 9.12 -1.31 2.6c-6.51,19.53 -14.32,33.85 -22.13,44.27 -21.15,28.49 -53.26,46.92 -88.55,50.78 -19.53,0 -36.46,-5.21 -49.48,-15.63 -13.02,-10.42 -22.14,-27.34 -26.04,-49.48l-6.51 -39.06c0,2.6 -1.3,3.91 -3.91,6.51l-9.11 9.11 -16.93 13.02c-18.5,13.85 -40.72,22.04 -63.81,23.44l-31.25 2.6 -15.63 1.3c-24.74,0 -36.46,-6.51 -36.46,-18.23l7.81 -23.44c2.6,-5.21 5.21,-9.11 5.21,-14.32l11.72 -23.44 5.21 -6.51c23.44,-32.55 55.99,-59.9 97.66,-79.43l10.42 -3.91c15.63,-5.21 24.74,-10.42 28.65,-14.32 5.21,-3.91 7.81,-10.42 10.42,-20.83l1.3 -11.72 3.91 -15.63c3.91,-14.32 7.81,-22.14 11.72,-22.14 2.6,0 3.91,5.21 5.21,14.32l-1.3 27.35 5.21 83.33 3.91 39.06c3.91,49.48 26.04,74.22 65.11,74.22 13.02,0 27.34,-5.21 44.27,-14.32 15.63,-9.12 28.65,-20.83 36.46,-32.55 9.12,-13.02 13.02,-26.04 13.02,-40.36l0 -5.21 -9.12 -62.5 -1.3 -10.42 -10.42 -62.5 -1.3 -10.42 0 -6.51 5.21 -19.53 1.3 -11.72c2.6,-14.32 6.51,-20.83 9.11,-20.83 2.61,0 5.21,2.6 6.51,6.51l2.6 10.42 2.6 16.93 2.6 10.42 3.91 22.14 3.91 24.74 0 9.12 1.3 9.11 11.72 69.01c7.81,35.16 28.65,62.5 65.11,80.73l11.72 5.21c14.32,6.51 24.74,10.42 31.25,10.42 10.42,0 15.63,-3.91 15.63,-10.42 -26.85,-48.54 -46.67,-100.81 -58.61,-154.99l-7.81 -31.25 -3.91 -29.95 2.6 -22.14 7.81 -28.65c1.3,-3.91 2.6,-6.51 5.21,-6.51l6.51 6.51 5.21 19.53 5.21 31.25c9.41,36.22 22.16,71.63 37.8,105.5 13.02,24.74 19.53,44.27 20.83,55.99l3.91 19.53 -0.02 -0zm-368.5 -1.3l0 -27.34 -3.91 -28.65 -28.65 14.32 -19.53 9.12c-24.74,11.72 -45.57,24.74 -65.11,39.06 -7.81,5.21 -10.42,9.12 -10.42,11.72 0,2.6 7.81,3.91 24.74,3.91 13.02,-1.3 24.74,-1.3 33.85,-3.91l19.53 -2.6c23.44,-2.6 39.06,-7.81 49.48,-15.63z"/>
  </g>
  <g id="_2130325456608">
   <path class="fil0" d="M1375.05 614.6c33.16,24.94 73.59,38.46 115.09,38.46 5.47,0 10.99,-0.23 16.43,-0.7 3.91,0 7.81,-2.61 10.42,-9.12l7.81 -29.95c2.6,-5.21 2.6,-13.02 2.6,-20.83 -2.39,-32.5 -10.81,-64.32 -24.76,-93.75 -11.72,-26.05 -26.04,-40.37 -44.27,-40.37 -20.83,0 -40.37,20.83 -59.9,59.9l-10.42 19.53 -2.6 6.51 -1.3 7.81 -3.91 7.81 -9.11 18.23 -6.51 11.72 -7.81 10.42 -7.81 11.72c-3.91,5.21 -11.72,9.11 -24.74,13.02 -14.32,5.21 -27.35,6.51 -42.97,6.51l-5.2 -0.01 -31.25 -2.6 -10.42 -2.6 -11.72 -15.63 -5.21 -10.42 -5.21 -10.42 -10.42 -19.53c-3.91,-7.81 -7.81,-11.72 -10.42,-11.72l-6.51 5.21 -2.6 15.63 -1.3 6.51 -1.3 3.91c-2.6,5.21 -5.21,10.42 -5.21,15.63 0,9.11 5.21,22.14 14.32,37.76l16.93 28.65 13.02 41.67 2.6 14.32 3.91 15.63 1.3 16.93c0,9.11 -3.91,18.23 -13.02,28.65l-9.12 7.81c-46.04,36.56 -103.15,56.49 -161.96,56.49 -28.14,0 -56.15,-4.58 -82.83,-13.51 -22.14,-10.42 -37.76,-24.74 -46.88,-42.97 -9.11,-16.93 -13.02,-35.16 -13.02,-54.69 0,-9.12 1.3,-19.53 5.21,-29.95l2.6 -14.32 10.42 -26.04c4.51,-9 7.61,-18.7 9.11,-28.66 0,-7.81 -1.3,-10.42 -3.91,-10.42 -2.6,0 -3.91,1.3 -5.21,3.91l-2.6 3.91 -3.91 9.11 -16.93 32.55c-14.04,33.42 -22.04,69.23 -23.44,105.48l1.3 9.11 3.91 27.35 14.32 28.65 6.51 11.72c7.81,16.93 24.74,29.95 48.18,39.06 23.44,10.42 52.09,14.32 87.24,14.32 40.37,0 78.13,-7.81 111.98,-23.44 33.86,-15.63 59.9,-36.46 78.13,-65.11 18.23,-27.35 27.34,-57.29 27.34,-89.85l-1.3 -33.86 0 -10.42c0,-2.6 1.3,-3.91 2.6,-3.91l5.21 -1.3 13.02 2.61 11.72 1.3c9.12,0 20.83,-3.91 36.46,-11.72 16.93,-6.51 28.65,-16.93 35.16,-29.95 11.72,-26.04 19.53,-39.06 22.14,-39.06l0 1.3 0.01 -0.01zm31.25 -67.71l1.3 1.3 3.91 -5.21 5.21 -9.12c7.81,-9.11 16.93,-13.02 27.34,-13.02 6.51,0 11.72,2.6 16.93,7.81 5.21,3.91 11.72,11.72 18.23,24.74l5.21 10.42 1.3 6.51 6.51 18.23 1.3 3.91 -3.91 0c-13.02,0 -24.74,-2.6 -35.16,-6.51l-20.83 -7.81 -31.25 -13.02c-2.6,-2.61 -5.21,-3.91 -5.21,-6.51l9.11 -11.72z"/>
   <path class="fil0" d="M911.49 358.08c0,-3.91 0,-6.51 2.6,-9.11l2.6 -9.11 0 -6.51c0,-3.91 2.6,-6.51 7.81,-9.11 3.91,-3.91 31.25,-18.23 80.73,-42.97l63.8 -29.95 10.42 -5.21 29.95 -15.62 11.72 -5.21c22.14,-11.72 35.16,-18.23 40.37,-18.23l5.21 3.91 1.3 10.42 -3.91 15.62c-2.6,5.21 -6.51,9.12 -10.42,10.42l-10.42 3.91 -22.14 11.72 -23.44 10.42 -26.04 13.02 -49.48 23.44 -36.46 16.93 -22.14 14.32c-26.04,14.32 -41.67,22.14 -48.18,22.14 -2.6,0 -3.91,-1.3 -3.91,-5.21l0 -0z"/>
   <path class="fil0" d="M1092.49 492.2l0 2.61c0,6.51 -3.91,15.62 -10.42,26.04 -6.51,11.72 -11.72,16.93 -15.63,16.93l-9.11 -3.91 -5.21 -5.21 -14.32 -6.51c-7.81,-2.6 -14.32,-5.21 -18.23,-9.12 -3.91,-2.6 -6.51,-6.51 -6.51,-11.72l1.3 -3.91 7.81 -18.23 2.61 -7.81c2.6,-14.32 7.81,-20.83 16.93,-20.83 5.21,0 13.02,3.91 24.74,11.72l7.81 6.51c9.11,6.51 14.32,14.32 18.23,23.44l0 0z"/>
   <path class="fil0" d="M1335.98 375.01c-5.21,-6.51 -7.81,-14.32 -7.81,-23.44 0,-7.81 2.6,-15.62 5.21,-24.74 3.91,-9.11 7.81,-14.32 10.42,-14.32 2.6,0 5.21,2.61 5.21,9.12l-1.3 7.81c0,5.21 2.6,9.12 6.51,13.02 3.91,3.91 9.11,5.21 15.63,5.21 10.42,0 16.93,-1.3 22.14,-3.91 5.21,-3.91 7.81,-6.51 7.81,-11.72l0 -3.91 -1.3 -16.93c0,-24.74 3.91,-36.46 13.02,-36.46 6.51,0 9.12,5.21 9.12,15.62l0 15.63c1.3,15.63 5.21,23.44 13.02,23.44l14.32 -3.91 14.32 -6.51c2.61,-2.6 3.91,-6.51 3.91,-10.42l0 -10.42 -2.6 -9.11 0 -5.21 1.3 -11.72c3.91,-14.32 9.11,-20.83 13.02,-20.83 2.6,0 5.21,5.21 6.51,15.63l2.61 42.97c0,10.42 -2.61,20.83 -7.81,29.95 -12.79,16.82 -32.29,27.3 -53.39,28.65l-7.81 -2.6 -6.51 -1.3c-2.6,0 -6.51,2.6 -10.42,6.51l-7.81 6.51c-6.51,6.51 -16.93,9.11 -29.95,9.11 -13.02,0 -22.14,-3.91 -27.35,-11.72l0 0z"/>
   <path class="fil0" d="M1566.46 765.65l-22.14 9.12 -46.88 20.83 -61.2 26.04 -44.27 18.23c-6.51,3.91 -13.02,5.21 -18.23,5.21 -3.91,0 -5.21,-1.3 -5.21,-5.21l0 -2.61 2.6 -9.11 0 -7.81c1.3,-6.51 3.91,-10.42 9.11,-13.02l26.04 -9.11 6.51 -2.6 35.16 -15.63 13.02 -5.21 79.43 -33.86c24.74,-13.02 41.67,-19.53 48.18,-20.83l3.91 -1.3c6.51,0 10.42,3.91 10.42,10.42l-3.91 15.62c-1.3,5.21 -6.51,10.42 -14.32,13.02l-18.23 7.81 -0 0z"/>
  </g>
  <g id="_2130325458336">
   <path class="fil1" d="M1786.52 223.97c-19.53,10.42 -33.86,15.62 -42.97,15.62 -3.91,0 -5.21,-2.6 -5.21,-7.81l3.91 -18.23 6.51 -11.72 16.93 -7.81 18.23 -5.21 32.55 -14.32 19.53 -5.21 23.44 -11.72 42.97 -20.83 10.42 -5.21 6.51 -2.61 3.91 0c3.91,0 6.51,3.91 6.51,10.42 0,13.02 -3.91,20.83 -11.72,26.04 -18.23,11.72 -40.37,22.14 -63.8,31.25 -32.55,11.72 -54.69,22.14 -67.71,28.65l0 -1.3z"/>
   <path class="fil1" d="M2832.12 746.11l-5.21 1.3 -19.53 2.61 -18.23 5.21c-10.42,2.6 -20.83,3.91 -32.55,3.91l-44.27 5.21 -7.81 1.3 -61.2 3.91 -29.95 5.21 -32.55 5.21 -78.13 5.21 -7.81 0 -18.23 -1.3 -10.42 -3.91 -13.02 -1.3c-9.11,0 -16.93,10.42 -22.14,31.25l-5.21 18.23 -14.32 37.76 -10.42 23.44 -5.21 10.42 -7.81 7.81c-2.6,0 -3.91,-2.6 -3.91,-7.81 0,-9.11 3.91,-22.14 10.42,-39.06l16.93 -42.97 14.32 -42.97 0 -2.6 -5.21 -7.81 -11.72 -6.51 -11.72 -7.81 -18.23 -10.42 -3.91 1.3 -3.91 6.51c-1.3,3.91 -7.81,9.12 -18.23,15.63 -10.42,7.81 -24.74,13.02 -41.67,19.53 -16.93,6.51 -36.46,11.72 -57.29,15.62l-40.37 5.21 -13.02 2.6 -11.72 1.3 -14.32 1.3 -15.62 1.3 -9.12 2.6 -1.3 0 -3.91 -1.3 -23.44 -2.6 -28.65 -2.6 -26.04 -3.91c-24.74,-3.91 -44.27,-13.02 -61.2,-27.35 -18.23,-14.32 -32.55,-35.16 -45.57,-61.2l-6.51 -15.63 0 -1.3 -1.3 -3.91c-5.21,-19.53 -9.11,-31.25 -11.72,-31.25l-26.05 32.55 -23.44 11.72 -10.42 5.21c-14.32,6.51 -31.25,10.42 -50.78,10.42l-37.76 -3.91 -7.81 -1.3c-6.51,0 -11.72,-1.3 -15.63,-3.91 -5.21,-2.61 -6.51,-6.51 -6.51,-9.12l3.91 -15.63 10.42 -28.65c3.91,-18.23 16.93,-37.76 36.46,-55.99 19.53,-19.53 42.97,-36.46 70.31,-52.08 16.93,-7.81 26.04,-14.32 28.65,-16.93l0 -6.51 -2.6 -27.35 -1.3 -13.02 1.3 -20.83c2.6,-24.74 6.51,-37.76 11.72,-37.76 3.91,0 5.21,3.91 7.81,11.72l3.91 35.16c1.3,13.02 3.91,27.35 9.12,44.27l9.11 33.86 3.91 16.93 6.51 27.34c11.72,45.57 28.65,80.73 49.48,102.87 20.83,23.44 53.39,37.76 97.66,42.97l39.06 3.91 29.95 -0 22.14 -1.3 85.94 -14.32c46.88,-7.81 76.82,-24.74 92.45,-46.88l14.32 -23.44c5.21,-7.81 9.12,-11.72 13.02,-11.72l3.91 2.6c1.3,1.3 2.6,3.91 2.6,9.12 0,2.6 -1.3,7.81 -5.21,14.32l-5.21 15.63 1.3 3.91 0 -1.3 1.3 0 10.42 3.91 9.12 5.21 2.6 1.3 10.42 3.91 9.11 2.6c10.42,3.91 19.53,5.21 27.34,5.21 7.81,0 18.23,-3.91 28.65,-11.72l37.76 -29.95 105.47 -93.75c35.16,-29.95 62.5,-44.27 84.64,-44.27 0.51,0 1.08,-0.01 1.6,-0.01 29.89,0 58.5,12.24 79.13,33.86 8.4,9.88 13.02,22.45 13.02,35.42 0,5.65 -0.88,11.28 -2.6,16.67l-14.32 40.36 -15.63 24.74 -5.21 10.42 6.51 -1.3 13.02 -2.6 13.02 -2.6 7.81 -1.31 19.53 -5.21 54.69 -14.32c7.81,-1.3 20.83,-6.51 36.46,-14.32l19.53 -11.72 3.91 -2.6 3.91 -3.91 1.3 -3.91 -6.51 -22.14c-5.21,-11.72 -13.02,-24.74 -24.74,-41.67l-15.63 -20.83c-11.72,-13.02 -16.93,-22.14 -16.93,-27.34l1.3 -5.21c2.84,-6.54 5.95,-13.11 9.12,-19.5l0 -6.51 6.51 -16.93 5.21 -3.91c2.6,0 5.21,1.3 9.11,5.21l29.95 39.06 23.44 39.06 3.91 13.02 2.6 11.72 1.3 13.02 1.3 19.53c0,9.11 -2.6,20.83 -10.42,33.85l-15.63 31.25c-6.51,10.42 -14.32,19.53 -22.14,24.74 -34.51,20.86 -72.47,35.87 -111.97,44.24l-1.32 0 -1.3 1.31 0 -0zm-897.16 -115.89l-3.91 -13.02 -10.42 -42.97c0,2.6 -11.72,10.42 -35.16,23.44l-58.6 32.55c-15.62,10.42 -23.44,16.93 -23.44,22.14 0,2.6 14.32,3.91 45.57,3.91l35.16 -1.31 22.14 -7.81c19.53,-3.91 28.65,-9.11 28.65,-14.32l0 -2.61zm847.68 15.63c3.91,-2.6 5.21,-5.21 5.21,-7.81 0,-7.81 -10.42,-15.63 -28.65,-26.05 -18.23,-9.11 -36.46,-13.02 -54.69,-13.02 -19.53,0 -40.37,7.81 -59.9,23.44l-45.57 39.06 -19.53 16.93 -10.42 9.12 -9.11 9.11 -6.51 5.21 -10.42 7.81c-7.81,5.21 -11.72,9.11 -13.02,11.72l5.21 0 39.06 -2.6 16.93 -2.6 14.32 -2.6 13.02 0c52.09,-2.6 106.78,-24.74 162.76,-66.41l1.31 -1.3z"/>
   <path class="fil1" d="M1903.71 266.94l2.6 0c6.51,0 15.63,5.21 27.34,16.93 10.42,10.42 16.93,18.23 16.93,24.74 0,3.91 -3.91,11.72 -10.42,23.44 -6.51,11.72 -13.02,18.23 -18.23,18.23l-7.81 -3.91 -10.42 -7.81 -5.21 -3.91 -10.42 -3.91 -2.6 0c-5.21,0 -10.42,5.21 -15.63,16.93l-11.72 18.23 -5.21 2.6c-6.51,0 -15.63,-2.6 -27.35,-9.11 -11.72,-6.51 -16.93,-11.72 -16.93,-16.93 0,-7.81 1.3,-14.32 5.21,-19.53 2.6,-3.91 5.21,-7.81 5.21,-11.72l0 -1.3 1.3 -3.91 2.6 -2.6 1.3 -2.6 2.61 -3.91 2.6 -3.91 5.21 -2.6 19.53 10.42c10.42,6.51 16.93,10.42 20.83,10.42l3.91 -1.3 6.51 -11.72 5.21 -5.21 0 -3.91 1.3 -5.21 6.51 -9.12c1.3,-3.91 2.6,-6.51 5.21,-7.81l0 0z"/>
   <path class="fil1" d="M1877.67 114.59l-10.42 3.91c-2.6,0 -5.21,-2.6 -5.21,-7.81l5.21 -22.14 1.3 -5.21c1.3,-3.91 10.42,-9.12 27.35,-15.63l9.11 -3.91 96.36 -46.88 28.65 -15.63 10.42 -1.3c5.21,0 9.11,5.21 9.11,15.62 0,9.12 -5.21,16.93 -15.62,22.14l-36.46 15.63 -27.34 14.32 -36.46 18.23 -55.99 28.65 0 0z"/>
   <path class="fil1" d="M2332.11 406.26l-3.91 1.3c-2.6,0 -3.91,-2.6 -3.91,-6.51l1.3 -6.51 1.3 -5.21 2.61 -15.63c1.3,-2.6 3.91,-6.51 9.11,-7.81l6.51 -3.91 28.65 -13.02 95.06 -45.57 69.01 -35.16 28.65 -13.02 9.11 -5.21 10.42 -3.91c5.21,0 7.81,5.21 7.81,14.32 0,13.02 -9.11,24.74 -27.34,32.55l-89.85 41.67 -88.54 44.27 -45.57 24.74 -10.42 2.6 0 0z"/>
   <path class="fil1" d="M2575.6 473.97c5.21,2.6 6.51,6.51 6.51,10.42 0,5.21 -3.91,13.02 -11.72,24.74 -7.81,10.42 -14.32,16.93 -20.83,16.93 -6.51,0 -14.32,-3.91 -26.04,-10.42l-23.44 -14.32c-2.6,-3.91 -5.21,-6.51 -5.21,-10.42 0,-5.21 2.6,-11.72 7.81,-16.93l6.51 -13.02 7.81 -15.63 7.81 -3.91 7.81 2.6 7.81 6.51 35.16 23.44z"/>
   <path class="fil1" d="M3425.89 654.97l-6.51 27.35 -2.6 7.81c-3.91,15.63 -14.32,28.65 -32.55,39.06 -18.23,10.42 -40.37,18.23 -69.01,22.14l-52.08 6.51 -3.91 0 -3.91 -1.3 -14.32 0 -2.61 2.6 -3.91 20.83 -13.02 28.65 -23.44 44.27c-14.32,26.04 -29.95,45.57 -45.57,58.6l-40.37 28.65c-23.44,14.32 -48.18,22.14 -72.92,22.14 -26.05,0 -55.99,-5.21 -88.54,-16.93 -9.12,-2.6 -22.14,-6.51 -37.76,-7.81 -16.93,-2.6 -28.65,-6.51 -37.76,-9.12l-19.53 -6.51c-15.63,-3.91 -23.44,-9.11 -23.44,-15.63l3.91 -7.81c2.6,-3.91 6.51,-5.21 9.11,-5.21 5.21,0 10.42,1.3 14.32,3.91l6.51 3.91c2.6,2.6 11.72,5.21 26.04,7.81l13.02 1.3c27.34,5.21 53.39,7.81 78.13,7.81 52.08,0 92.45,-11.72 119.79,-35.16l2.61 -1.3 7.81 -5.21 10.42 -6.51 26.05 -23.44 19.53 -19.53c7.81,-7.81 18.23,-20.83 27.34,-37.76l7.81 -11.72 7.81 -14.32 3.91 -7.81c0,-2.6 -1.3,-2.6 -2.6,-3.91l-11.72 -3.91 -2.6 -2.6 -16.93 -11.72c-9.11,-7.81 -13.02,-15.63 -13.02,-26.05l0 -6.51 6.51 -23.44c3.91,-11.72 6.51,-18.23 9.11,-18.23l3.91 2.6c5.21,10.42 9.11,16.93 14.32,19.53 11.72,6.51 26.04,10.42 42.97,11.72l19.53 1.3 13.02 0c0.17,0 0.34,0 0.5,0 37.57,0 74.59,-9.41 107.59,-27.34 7.81,-5.21 13.02,-7.81 15.63,-11.72 2.6,-2.6 3.91,-5.21 3.91,-9.12l0 -2.6 -5.21 -18.23 -6.51 -20.83 -6.51 -11.72 0 3.91 -5.21 10.42c-5.21,10.42 -9.12,16.93 -11.72,18.23l-9.11 7.81 -7.81 5.21 -7.81 5.21 -13.02 2.6c-9.12,0 -19.53,-3.91 -31.25,-11.72 -10.42,-6.51 -18.23,-14.32 -20.83,-22.14l-6.51 -13.02 -2.6 -6.51 -1.3 -10.42 0 -3.91 3.91 -28.65c3.91,-29.95 16.93,-57.29 37.76,-82.04 9.11,-11.72 19.53,-16.93 28.65,-16.93 11.72,0 24.74,9.11 39.06,27.34 14.32,18.23 26.04,40.37 36.46,67.71 10.42,26.04 15.63,49.48 15.63,70.31 0,14.32 -2.6,27.34 -6.51,39.06l-0.01 -0.01zm-91.15 -141.93c-5.21,0 -10.42,2.6 -18.23,7.81 -6.51,5.21 -11.72,13.02 -16.93,23.44l-2.6 9.11c0,6.51 3.91,13.02 11.72,18.23 7.81,3.91 16.93,7.81 28.65,10.42l2.6 0c5.21,0 11.72,-2.6 20.83,-6.51 9.11,-5.21 13.02,-10.42 13.02,-14.32l0 -2.6 -13.02 -23.44c-10.42,-15.63 -18.23,-22.14 -26.04,-22.14z"/>
   <path class="fil1" d="M2975.36 764.34c2.6,-2.6 3.91,-3.91 6.51,-3.91l15.63 6.51c11.72,6.51 19.53,13.02 23.44,18.23 5.21,5.21 6.51,10.42 6.51,15.63 0,3.91 0,7.81 -2.6,11.72 -2.6,6.51 -7.81,13.02 -13.02,18.23 -6.51,6.51 -10.42,9.12 -14.32,9.12l-2.6 -0 -23.44 -11.72 -15.63 -9.12c-2.6,0 -6.51,2.61 -10.42,9.12l-11.72 14.32 -5.21 6.51c-6.51,6.51 -10.42,10.42 -13.02,9.11l-9.11 -1.3 -9.12 -6.51 -18.23 -7.81 -11.72 -5.21c-3.91,-2.6 -5.21,-5.21 -5.21,-7.81l3.91 -10.42 6.51 -14.32c3.91,-7.81 6.51,-14.32 10.42,-18.23 2.6,-3.91 5.21,-6.51 7.81,-6.51 6.51,0 15.63,3.91 27.34,10.42l19.53 10.42 5.21 1.3c7.81,0 16.93,-9.12 27.34,-28.65l5.21 -9.12z"/>
   <path class="fil1" d="M3235.78 964.87l5.21 2.6 1.3 7.81c0,15.63 -5.21,26.05 -15.63,29.95l-6.51 3.91 -20.83 9.11 -97.66 37.76 -48.18 19.53 -5.21 0c-3.91,0 -6.51,-2.6 -6.51,-9.12l2.6 -14.32 5.21 -13.02 57.29 -22.14 40.37 -14.32 29.95 -11.72 16.93 -6.51 16.93 -7.81 15.63 -9.12 7.81 -2.6 1.3 0z"/>
   <path class="fil1" d="M3170.67 266.94l-1.31 0c-2.6,0 -3.91,-1.31 -3.91,-3.91l1.3 -6.51 1.3 -5.21 3.91 -14.32c1.3,-5.21 5.21,-7.81 10.42,-10.42l19.53 -7.81 158.86 -69.01 15.63 -9.11 6.51 -2.6c3.91,0 6.51,3.91 6.51,11.72l-2.6 11.72 -2.6 9.11c-3.91,5.21 -13.02,11.72 -29.95,18.23l-27.35 10.42 -122.4 53.39 -16.93 7.81c-5.21,3.91 -11.72,5.21 -16.93,6.51l0 0z"/>
   <path class="fil1" d="M3313.91 319.02c5.21,6.51 9.11,13.02 9.11,19.53 0,7.81 -3.91,16.93 -11.72,28.65 -7.81,10.42 -14.32,15.63 -18.23,15.63l-6.51 -3.91c-2.61,-3.91 -5.21,-5.21 -6.51,-5.21l-7.81 -3.91c-11.72,-6.51 -18.23,-10.42 -18.23,-13.02 0,-5.21 1.3,-9.11 3.91,-13.02l5.21 -7.81 3.91 -3.91 5.21 -14.32c2.6,-9.12 7.81,-14.32 13.02,-14.32 6.51,0 16.93,5.21 28.65,15.63l0 0z"/>
  </g>
 </g>
</svg>
