<svg xmlns="http://www.w3.org/2000/svg" xml:space="preserve" fill-rule="evenodd" clip-rule="evenodd" image-rendering="optimizeQuality" shape-rendering="geometricPrecision" text-rendering="geometricPrecision" viewBox="0 0 10345.15 1145.08">
  <path d="M10220.42 340.7c5.58 5.58 9.3 13.14 9.3 20.57 0 9.3-3.72 18.6-13.02 29.76-7.44 11.16-14.88 16.74-18.6 16.74-1.86 0-3.72 0-7.44-3.72-1.86-3.72-3.72-5.58-5.58-5.58l-9.3-5.58c-13.02-5.58-20.46-9.3-20.46-13.02 0-3.72 1.86-9.3 5.58-13.02l5.58-7.44 3.72-5.58 5.58-14.99c3.72-9.3 7.44-14.88 13.02-14.88 7.44 0 18.6 5.58 31.61 16.74zm-152.62-55.8h-1.86a4 4 0 0 1-3.72-3.72c0-3.72 0-5.58 1.86-7.44v-5.58l5.58-16.74a19.15 19.15 0 0 1 11.16-9.41l20.46-9.3 169.48-72.53 16.74-9.3c1.86-1.86 5.58-1.86 5.58-1.86 5.58 0 7.44 1.86 7.44 11.16 0 1.86-1.86 7.44-3.72 11.16 0 5.58-1.86 9.3-1.86 11.16-3.72 5.58-13.02 13.02-31.62 20.46l-29.87 9.3-130.31 57.77-16.74 7.44c-7.44 3.72-13.02 5.58-18.6 7.44zm70.79 742.89c1.86 0 3.72 0 3.72 3.72 1.86 1.86 1.86 3.72 1.86 7.44 0 14.88-5.58 26.04-16.73 31.73l-7.44 3.72-22.43 9.3-102.29 40.92-52.19 20.46h-5.58c-3.72 0-7.44-1.86-7.44-9.3 0-5.58 1.86-9.3 3.72-16.74 1.86-5.58 3.72-11.16 5.58-13.02 1.86 0 22.32-9.3 61.49-24.18l42.78-14.99 29.76-11.16 20.46-7.44 16.74-9.3 16.86-9.3 7.44-1.86h3.72zm-277.35-214.11c0-1.86 3.72-3.72 5.58-3.72 5.58 0 9.3 1.86 16.74 5.58 11.16 7.44 20.46 14.88 24.18 20.46 5.58 5.58 7.44 11.16 7.44 16.74 0 3.72 0 9.3-1.86 13.14-3.72 5.58-9.3 13.02-14.88 18.6-5.58 7.44-11.16 11.16-14.88 11.16l-3.72-1.86c-7.44-1.86-14.88-5.58-24.18-13.02-9.3-5.58-14.88-7.44-16.74-7.44-1.86 0-5.58 1.86-11.16 7.44l-11.27 16.74-7.44 7.44c-5.58 5.58-9.3 9.3-13.02 9.3-3.72 0-7.44 0-9.3-1.86l-9.3-7.44-20.46-7.44-11.16-7.44c-3.72-1.86-7.44-3.72-7.44-7.44 0-1.86 1.86-5.58 5.58-9.3 1.86-1.86 3.72-7.44 7.44-16.85l9.3-18.6c3.72-5.58 5.58-7.44 9.3-7.44 7.44 0 16.74 3.72 29.76 11.16l18.6 11.16c3.84 1.86 5.69 1.86 7.56 1.86 7.44 0 16.74-11.16 27.9-31.61l7.44-9.3zm379.64-268.16c-3.72 0-9.3 3.72-16.74 9.3-7.44 5.7-13.02 13.14-18.6 24.3-1.86 3.72-3.72 7.44-3.72 9.3 0 7.44 3.72 14.88 13.02 20.46 7.44 5.58 16.74 9.3 29.76 11.16h3.72c3.72 0 11.16-1.86 22.44-7.44 9.3-5.58 13.02-9.3 13.02-14.88v-1.86l-14.88-26.04c-9.41-14.99-18.72-24.29-28.01-24.29zm98.69 152.74-7.44 27.9-1.86 9.3c-5.58 14.88-16.74 29.87-35.34 41.03-18.6 11.16-42.89 18.6-74.51 24.18l-53.93 5.58h-24.18s-1.86 0-1.86 1.86l-5.58 22.32c-1.86 7.44-5.58 16.74-13.02 29.76l-24.3 48.47c-16.74 27.9-31.62 48.36-50.22 61.49a353.1 353.1 0 0 1-40.92 31.61c-26.03 14.88-52.19 22.32-78.23 22.32-27.9 0-59.52-5.58-94.85-16.74-9.3-3.72-22.44-7.44-41.03-9.3-16.74-3.72-29.76-5.58-39.06-9.3l-20.46-7.44c-16.74-3.72-26.03-9.3-26.03-16.86 0-1.86 1.86-3.72 5.58-7.44a10.23 10.23 0 0 1 9.3-5.58c5.58 0 11.16 1.86 14.88 3.72l7.44 3.72c3.72 1.86 13.02 5.58 27.9 7.44l13.02 1.97c29.76 5.58 57.77 9.3 83.81 9.3 55.8 0 96.71-13.14 126.59-37.31l3.72-1.86 9.3-5.58 9.3-7.44 27.9-24.18 20.46-20.46c9.3-9.3 18.6-22.43 29.76-41.03l7.44-11.16 9.3-14.88 3.84-9.3c0-1.86-1.97-3.72-3.84-3.72-1.86 0-5.58-1.86-11.16-5.58l-3.72-1.86-16.74-13.02c-11.16-7.44-14.88-16.74-14.88-28.02v-7.44l7.44-24.18c3.72-13.02 7.44-18.6 9.3-18.6 1.86 0 1.86 0 3.72 1.86 5.58 11.16 11.16 18.6 16.74 20.46 11.16 7.44 28.01 11.16 44.75 13.02l20.46 1.86h14.88c22.32 0 44.64-1.86 65.1-7.44 20.57-5.58 37.31-13.02 50.33-22.32 7.44-3.72 13.02-7.44 14.88-11.16 3.72-3.72 5.58-5.58 5.58-11.16v-1.86l-5.58-20.46-7.44-20.57-7.44-13.02v3.72l-5.58 11.16c-5.58 11.16-9.3 18.72-11.16 20.57l-11.15 7.44-7.44 5.58-9.41 5.58c-3.72 1.86-7.44 1.86-13.02 1.86-9.3 0-22.32-3.72-33.48-11.16-11.16-7.44-18.6-14.88-22.32-24.3l-7.44-13.02-1.86-7.44c0-1.86-1.86-5.58-1.86-11.16l1.86-3.72 1.86-31.62c5.58-31.73 18.6-61.49 40.92-85.67 9.3-13.02 20.46-18.6 31.61-18.6 11.16 0 24.3 9.3 41.03 27.9a293.72 293.72 0 0 1 39.06 72.65c9.3 27.9 14.88 53.94 14.88 74.4 0 14.99-1.86 29.87-5.58 42.89zM9434.99 504.6c5.58 1.86 7.44 7.44 7.44 11.16 0 5.58-3.72 14.88-13.02 26.04-7.44 13.02-16.74 18.72-22.32 18.72-5.58 0-14.88-3.72-27.9-11.28-11.27-5.58-20.57-11.16-24.3-14.88-3.72-3.72-5.58-7.44-5.58-11.16 0-5.58 1.86-13.02 7.44-18.6 1.86-1.86 3.72-5.58 7.44-13.02 1.86-7.44 5.58-13.02 7.44-16.74 1.86-3.72 5.58-5.58 9.42-5.58 1.86 0 5.58 1.86 7.44 3.72 3.72 3.72 5.58 5.58 9.3 5.58l37.19 26.03zm-260.61-70.79h-3.72c-1.86 0-3.72-1.86-3.72-5.58 0-3.72 0-5.58 1.86-7.44l1.86-5.58 1.86-16.74c1.86-3.72 3.72-7.44 9.3-9.3l7.44-1.86 31.62-14.88 100.55-50.33c39.06-18.6 63.35-29.76 72.65-35.34l29.76-14.88 11.16-5.58c5.58-1.86 9.3-3.72 11.16-3.72 5.58 0 9.3 5.58 9.3 14.88 0 14.88-11.16 26.03-29.76 35.34-20.46 9.3-52.19 24.18-96.83 44.75l-92.99 46.5-48.47 26.03-13.02 3.72zm-482.05-310.94c-5.58 1.86-7.44 3.72-11.16 3.72-3.72 0-5.58-1.86-5.58-7.44l5.58-24.18 1.86-5.58c0-3.72 9.3-9.3 27.9-16.74l9.3-3.72L8824.5 18.6c16.74-9.3 26.04-14.88 29.76-16.74 3.72 0 7.44-1.86 11.16-1.86 5.58 0 9.3 5.58 9.3 16.74 0 9.3-5.58 18.6-16.74 24.29l-39.06 16.74-27.9 14.88c-13.14 7.44-26.15 13.02-39.17 18.6-27.9 14.88-48.36 26.04-59.52 31.62zm27.9 162.04h1.86c7.44 0 16.74 5.58 29.76 16.74 11.16 11.16 16.74 20.46 16.74 27.9 0 3.72-3.72 13.02-9.3 24.3-7.44 13.02-14.88 18.6-20.46 18.6-1.86 0-5.58 0-7.44-3.72l-11.16-7.44-7.44-3.72-9.3-3.72-3.72-1.86c-3.72 0-11.16 5.58-16.74 18.6-5.58 11.16-9.3 18.6-11.16 20.46-1.86 1.86-3.72 1.86-7.44 1.86-5.58 0-14.88-3.72-28.02-9.3-11.16-7.44-18.6-13.02-18.6-18.6 0-7.44 1.86-14.88 5.58-20.57 3.72-5.58 5.58-9.3 5.58-13.02l1.86-1.86v-3.72l1.86-1.86 3.72-3.72 1.86-3.72 3.84-3.72c0-1.86 1.86-1.86 3.72-1.86s9.3 3.72 20.46 9.3c11.16 7.44 18.6 11.16 22.32 11.16 1.86 0 3.72 0 5.58-1.86 1.86-1.86 3.72-5.58 5.58-11.16l5.58-5.58v-3.72c0-3.72 1.86-5.58 1.86-7.44 1.86 0 3.72-3.72 5.58-9.3 1.86-3.72 5.58-5.58 7.44-7.44zm934.34 402.19c3.72-1.86 5.58-5.58 5.58-7.44 0-7.44-11.16-16.74-29.76-28.01-20.46-9.3-39.06-14.88-59.52-14.88s-40.92 9.3-63.35 26.15l-48.36 40.92-20.46 18.6-11.16 9.3-9.3 9.3-7.44 7.44-11.16 7.44c-7.44 3.72-13.02 9.41-14.88 13.14l7.44-1.86 40.92-1.86 18.6-3.72 14.88-1.98h14.88c54.05-1.86 111.7-26.04 171.22-70.68l1.86-1.86zm-900.86-14.88-5.58-14.99c-3.72-22.32-7.44-37.2-11.16-44.64 0 1.86-11.16 9.3-37.2 24.18-24.18 13.02-44.64 24.3-61.49 35.45-16.74 9.3-24.18 16.74-26.04 22.32 0 3.72 16.74 5.58 48.47 5.58 20.46 0 33.48-1.86 37.2-1.86l24.18-9.3c20.46-3.72 31.62-9.3 31.62-14.88v-1.86zm954.91 121.01-7.44 3.72-20.46 1.86-18.72 5.58c-11.16 1.86-22.32 3.72-35.34 3.72l-46.49 5.58-7.44 1.86-67.07 3.72-31.62 5.58a623.91 623.91 0 0 1-33.48 5.58l-83.81 5.58h-7.44c-9.3 0-14.88 0-20.46-1.86l-11.16-3.72c-3.72 0-9.3-1.86-13.02-1.86-9.3 0-18.6 11.16-24.18 33.48l-5.58 18.71-14.88 40.92-11.16 24.18-5.58 11.16c-3.72 5.58-5.58 9.3-9.3 9.3-1.86 0-3.84-3.72-3.84-9.3 0-9.3 3.84-22.32 13.13-40.92 7.44-18.6 13.02-33.48 16.74-46.5l14.88-44.75v-1.86c0-1.86-1.86-5.58-5.58-9.3-3.72-1.86-7.44-5.58-13.02-7.44l-11.16-7.44c-11.16-7.44-16.86-11.16-20.57-11.16-1.86 0-1.86 0-3.72 1.86l-3.72 5.58c-1.86 5.58-7.44 11.16-18.6 18.6-11.16 5.58-26.04 13.02-44.64 20.46-18.6 5.58-39.06 11.16-61.37 14.88l-42.89 7.44-13.02 1.86-13.02 1.86c-5.58 0-11.16 1.86-16.74 1.86-5.58-1.86-9.3 0-14.88 0l-9.3 1.86-1.86 1.98-3.72-1.98-26.04-3.72-29.87-1.86-29.76-3.72c-24.18-5.58-46.49-14.88-63.23-29.76-18.6-14.88-35.34-37.2-48.47-65.21l-7.44-16.74v-5.58c-5.58-20.46-11.16-31.62-13.02-33.48l-1.86 1.86-27.9 33.48-24.18 13.02-9.3 5.58c-16.74 7.56-33.48 9.42-55.91 9.42-7.44 0-20.46 0-39.06-3.72h-7.44c-7.44 0-13.02-1.86-18.6-5.7a10.23 10.23 0 0 1-5.58-9.3c0-1.86 0-7.44 3.72-16.74a153.12 153.12 0 0 0 11.16-29.76c3.72-20.46 16.74-40.92 39.06-61.49 20.57-18.6 44.75-37.2 74.51-53.94 18.6-7.44 27.9-14.88 29.76-18.6v-5.58l-1.86-29.87-1.86-14.88 1.86-20.46c1.86-26.04 7.44-40.92 13.02-40.92 1.86 0 5.58 3.72 7.44 11.16l3.72 39.06a276.1 276.1 0 0 0 11.16 46.49l7.44 37.31 5.58 16.74 7.44 29.76c11.27 48.47 29.87 85.67 50.33 109.85 22.32 24.3 57.66 39.18 106.13 44.75l40.92 3.72 31.62 1.86 24.18-1.86 91.25-14.88c48.36-9.3 81.83-26.15 98.57-52.19l14.99-24.18c5.58-7.44 9.3-11.16 13.02-11.16 1.86 0 1.86 0 3.72 1.86a14.2 14.2 0 0 1 3.72 9.3c0 3.72-1.86 9.3-5.58 16.74-3.72 7.44-5.58 11.16-5.58 14.88 0 1.86 1.86 3.72 1.86 5.58v-1.86c1.86 0 5.58 1.86 13.02 3.72l9.3 5.58 3.72 1.86c3.72 1.86 7.44 3.72 9.3 3.72l11.16 3.72c9.3 3.84 18.6 5.7 27.9 5.7 9.3 0 18.6-5.7 29.76-13.14 13.02-9.3 26.16-18.6 41.03-33.48l113.45-98.69c35.45-31.62 65.21-46.49 89.39-46.49 16.74 0 31.62 3.72 48.36 9.3 14.88 5.58 28.01 14.88 37.31 26.04 9.3 11.16 13.02 24.18 13.02 39.06 0 3.72 0 11.16-3.72 16.85-7.44 26.04-11.16 39.06-13.02 42.78-1.86 1.86-7.44 11.16-16.85 26.04l-7.44 11.16 7.44-1.86 14.99-1.86 14.88-3.72 7.44-1.86 20.46-5.58 57.66-13.02c9.3-3.72 22.32-7.44 39.06-16.74l20.57-11.16 3.72-3.72 5.58-3.72v-3.72c0-3.72-1.86-11.16-7.44-24.3-3.72-11.16-13.02-26.04-26.15-42.78l-16.74-22.32c-11.16-14.88-16.74-24.18-16.74-29.76 0-1.98 0-3.84 1.86-5.69 0-1.86 3.72-7.44 7.44-14.88 0-1.86 1.86-3.72 1.86-7.44v-5.58c0-3.72 3.72-11.16 7.44-18.6 1.86-1.86 3.72-3.72 5.58-3.72 1.86 0 5.58 1.86 9.3 5.58l31.73 42.77c9.3 13.14 18.6 26.15 24.18 41.03l3.72 13.02 3.72 13.02 1.86 13.02 1.86 20.46c0 11.27-3.72 22.43-13.02 37.31l-14.88 31.61c-7.44 13.02-14.88 22.32-24.18 27.9-29.87 18.72-67.07 33.6-117.28 44.75v1.86h-3.72zM8595.5 240.16c-22.32 9.42-37.2 15-44.64 15-5.58 0-7.44-1.86-7.44-7.44 0-5.69 1.86-11.27 3.72-18.72 3.72-7.44 5.58-13.02 7.44-13.02 3.72-3.72 9.3-5.58 18.6-9.3l20.46-5.58 33.48-14.88 20.57-5.58 24.18-13.02 46.5-22.32 11.16-3.84 7.44-3.72h3.72c3.72 0 7.44 3.72 7.44 11.27 0 13.02-3.72 22.32-13.02 27.9-20.46 11.16-42.78 22.32-68.82 31.62-33.59 13.02-57.77 24.18-70.79 31.61zm-171.22 575.38-22.32 9.3-50.22 22.32-65.21 28.01-46.49 20.46c-7.44 1.86-14.88 3.72-20.46 3.72-3.72 0-5.58 0-5.58-3.72v-3.72l1.86-11.16 1.86-7.44c0-7.44 3.72-11.27 9.3-13.14l27.9-9.3 7.44-3.72c20.46-9.3 31.61-14.88 37.19-16.74l13.02-5.58c29.76-11.16 57.77-22.32 83.81-35.34 27.9-14.88 44.64-22.32 52.07-22.32l5.58-1.86c5.58 0 9.3 3.72 9.3 11.16 0 5.58 0 11.16-3.72 16.74-1.86 5.58-7.44 11.16-14.88 13.02-9.3 3.72-14.88 7.44-20.46 9.3zm-245.73-415.21c-3.72-7.44-5.58-16.74-5.58-26.04 0-7.44 0-16.74 5.58-26.15 3.72-9.3 5.58-14.88 9.3-14.88 3.72 0 5.58 3.72 5.58 9.3v9.41c0 5.58 1.86 9.3 5.69 13.02 3.72 3.72 9.3 5.58 16.74 5.58 11.16 0 18.6-1.86 24.18-5.58 5.58-1.86 9.3-5.58 9.3-11.16l-1.86-3.72-1.86-18.72c0-26.03 5.58-39.06 14.88-39.06 5.58 0 9.3 5.58 9.3 16.74v16.74c0 16.74 5.58 24.3 13.02 24.3 3.72 0 9.3 0 14.88-3.84 7.44-1.86 13.02-3.72 16.74-7.44 3.72-1.86 3.72-5.58 3.72-11.16v-11.16l-1.86-9.3-1.86-5.58 3.72-11.16c3.72-14.88 7.44-22.32 13.02-22.32 3.72 0 5.58 5.58 5.58 16.74l3.72 44.64c0 11.16-1.86 22.43-9.3 31.73-5.58 9.3-14.88 16.74-26.04 22.32-11.16 5.58-20.46 9.3-29.76 9.3-3.72 0-5.58-1.86-9.3-1.86-1.86-1.86-3.72-1.86-5.58-1.86-3.72 0-7.44 1.86-11.16 5.58l-9.3 7.44c-7.44 7.44-16.74 9.3-31.62 9.3-13.14 0-24.3-3.72-29.87-11.16zm-258.64 124.73 1.86 1.86c0 7.44-3.72 16.74-11.16 27.9-7.56 13.14-13.14 18.72-18.72 18.72-1.86 0-5.58-1.86-9.3-5.58l-5.58-3.72c-1.86-1.86-5.58-3.72-14.88-7.44-7.44-3.84-14.88-5.69-18.6-9.41-5.58-3.72-7.44-7.44-7.44-13.02l1.86-5.58 7.44-18.6 3.72-7.44c1.86-14.88 7.44-22.32 16.74-22.32 5.58 0 14.88 3.72 26.04 13.02l9.3 5.58c9.41 7.44 14.99 14.88 18.71 26.04zm-191.8-143.32c0-3.72 0-7.44 1.86-9.3 1.86-3.72 3.72-7.44 3.72-9.3v-7.44c0-3.72 1.86-7.56 7.44-11.27 5.58-1.86 33.6-16.74 87.53-44.64l66.95-31.62 11.27-5.58 31.62-16.86 13.02-5.58c22.32-13.02 37.2-18.6 42.78-18.6 1.86 0 3.72 1.86 5.58 3.72 0 3.72 1.86 5.58 1.86 11.16s-1.86 11.27-5.58 16.85c-1.86 5.58-5.58 9.3-9.3 11.16l-13.02 3.72-22.32 11.16-26.04 11.16-26.15 14.88-53.93 24.18-39.06 18.6-22.32 14.99c-28.01 16.74-44.75 24.18-52.19 24.18-1.86 0-3.72-1.86-3.72-5.58zm526.8 201.1c1.86 0 3.72 0 5.58-3.72l5.58-9.3c7.44-11.16 16.74-14.99 29.76-14.99 5.58 0 11.15 3.84 16.74 7.56 5.58 5.58 11.15 13.02 18.6 26.04l5.58 13.02 1.86 5.58 7.44 20.46 1.97 3.72h-3.84c-14.88 0-27.9-3.72-37.2-7.44l-24.18-7.44-31.61-14.88c-3.72-1.86-5.58-3.72-5.58-5.58 0-3.72 3.72-7.44 9.3-13.02zm-33.48 70.67c27.9 20.57 53.94 33.6 79.98 37.31 18.6 1.86 37.19 3.72 59.63 3.72 5.58 0 9.3-1.86 11.16-9.3 3.72-7.44 5.58-16.74 9.3-31.73 1.86-5.58 1.86-13.02 1.86-22.32 0-13.02-1.86-27.9-7.44-46.49-3.72-16.74-11.16-35.45-18.6-54.05-13.14-27.9-28.01-40.92-48.47-40.92-20.46 0-40.92 20.46-61.37 61.37l-11.16 22.43c-1.86 1.86-1.86 3.72-3.72 7.44l-1.86 7.44-3.72 7.44-9.3 20.46-7.44 11.16-7.44 11.16-9.41 13.02c-3.72 5.58-13.02 9.41-26.04 14.99a183.44 183.44 0 0 1-44.64 5.58h-5.58l-35.34-1.86c-3.72-1.86-7.44-1.86-9.3-3.72-3.72-1.86-7.44-7.44-13.02-16.85l-5.58-11.16c-3.84-3.72-5.7-7.44-5.7-9.3l-11.16-22.32c-3.72-7.44-7.44-11.16-11.16-11.16-1.86 0-3.72 1.86-5.58 3.72-3.72 3.72-3.72 9.3-3.72 16.74l-1.86 7.44-1.86 5.58c-1.86 5.58-3.72 9.3-3.72 14.88 0 11.16 3.72 24.29 14.88 41.03 9.3 16.74 14.88 26.04 16.74 29.76l14.99 44.64 1.86 14.99c1.86 5.58 1.86 11.16 3.72 16.74 1.86 7.44 1.86 13.02 1.86 18.6 0 9.3-3.72 20.46-14.99 31.62l-7.44 7.44a301.88 301.88 0 0 1-79.97 44.75c-29.76 11.16-59.63 16.74-87.53 16.74-39.06 0-70.67-5.58-92.99-16.74-24.3-11.16-41.03-26.04-50.33-44.75-9.3-18.6-14.88-39.06-14.88-57.65a106.6 106.6 0 0 1 5.58-33.6l3.72-14.88c1.86-5.58 3.72-14.88 9.3-27.9 5.58-11.16 9.3-20.46 9.3-27.9l1.86-1.86c0-7.44-1.86-11.16-3.72-11.16-3.72 0-5.58 1.86-5.58 3.72l-3.72 5.58-3.72 9.3-16.74 35.34c-7.44 14.88-13.02 35.45-18.6 55.91a209.84 209.84 0 0 0-7.44 55.8v9.3c1.86 13.02 3.72 24.3 5.58 29.87 1.86 5.58 7.44 14.88 14.88 29.76l7.44 11.16c9.3 18.6 26.04 33.48 50.33 42.78 24.18 9.41 55.8 14.99 92.99 14.99 42.78 0 83.81-7.44 119.15-24.3 37.2-16.74 63.24-39.06 83.81-68.81 18.6-29.87 29.76-61.49 29.76-96.83l-1.86-37.31v-9.3c0-1.86 0-3.72 1.86-5.58h5.58c3.72 0 7.44 0 14.88 1.86 5.58 1.86 9.3 1.86 11.16 1.86 9.3 0 22.32-3.72 39.06-13.02 18.6-5.58 31.61-16.74 37.19-31.62 13.14-26.04 20.58-41.03 24.3-41.03zm-681.27 78.22v5.58l-1.86 18.6-1.86 29.87c0 9.3-3.72 18.6-7.44 27.9-5.58 11.16-9.3 18.6-11.16 18.6v-3.72l-5.58-74.51-13.02-96.83-9.3-70.68-20.46-98.69-3.72-22.32-16.86-94.97c-5.58-29.87-7.44-50.33-7.44-67.07v-18.6l7.44-39.18c1.86-14.88 5.58-24.18 9.3-24.18 3.84 0 5.69 7.44 7.56 20.46v24.29l1.86 11.16 3.72 11.16c5.58 18.6 9.3 44.64 14.88 76.37 3.72 33.48 11.16 79.97 24.18 139.6l7.44 33.48 7.44 57.77 5.58 48.36 1.86 18.71 7.44 50.22v18.6zm52.07-640.49v-1.86c0-1.86 0-3.72-1.86-3.72-7.44-11.16-14.88-16.74-26.04-16.74-9.3 0-20.46 5.58-33.48 18.6-11.16 11.16-24.18 26.03-35.34 44.64h24.18l9.3-1.86 7.44-3.72c22.32-5.58 40.92-18.6 55.8-35.34zm24.3-13.02c0 20.46-13.14 42.78-41.03 65.1-26.03 22.43-53.93 33.59-83.69 33.59-7.44 0-22.32-3.72-41.03-9.3l-7.44-5.58c-3.72-1.86-7.44-3.72-9.3-3.72-3.72 0-7.44 1.86-13.02 7.44-5.58 3.72-7.44 9.3-9.3 13.02l-7.44 18.6a10.23 10.23 0 0 1-9.3 5.58c-1.86 0-3.72-3.72-3.72-11.16 0-14.88 3.72-29.76 13.02-40.92l13.02-16.85 7.44-9.3c5.58-5.58 11.16-9.3 18.6-9.3 1.86 0 7.44 1.86 13.02 7.44 5.7 3.72 11.28 5.58 15 5.58 5.58 0 9.3-1.86 11.16-7.44 11.16-26.04 33.48-53.94 61.37-83.81 7.44-5.58 14.88-9.3 26.03-9.3 18.6 0 31.62 7.44 39.06 24.29 5.7 11.16 7.56 18.6 7.56 26.04zm-476.58 223.41c-1.86 3.72-1.86 7.44-1.86 9.3 0 5.58 3.72 9.3 11.16 9.3 13.02 0 22.43-1.86 28.01-5.58 5.58-3.72 9.3-11.16 9.3-22.32l5.58-27.9c3.72-9.3 5.58-13.02 9.3-13.02a4 4 0 0 1 3.72 3.72c1.86 3.72 3.72 7.44 3.72 9.3l-1.86 27.9c0 3.72 0 7.44 1.86 9.3 1.86 3.72 5.58 3.72 9.3 3.72 7.44 0 16.74-3.72 31.62-11.16 3.72-1.86 5.58-5.58 5.58-11.16l-1.86-27.9c0-9.42 0-16.86 3.72-24.3 1.86-5.58 3.72-9.3 7.44-9.3s5.58 3.72 7.44 13.02c1.86 9.3 3.72 20.58 3.72 31.74v18.6c0 11.16-1.86 20.46-5.58 27.9a69.46 69.46 0 0 1-20.46 20.46l-9.3 5.58c-13.02 5.58-22.32 7.44-29.76 7.44h-3.72l-13.02-1.86c-1.86 0-5.58 3.72-11.16 7.55l-3.72 3.72c-11.16 5.58-20.57 7.44-31.73 7.44-20.46 0-31.61-9.3-31.61-26.15 0-5.58 0-11.16 1.86-16.74l1.86-13.02c1.86-9.3 5.58-14.88 7.44-18.6 3.72-3.72 5.58-5.58 7.44-5.58 5.58 0 7.44 3.72 7.44 9.3 0 1.86-1.86 5.58-1.86 9.3zm-63.23-102.41c-1.86 0-1.86-1.86-1.86-3.72v-1.86l1.86-7.44 3.72-11.16c0-9.3 3.72-14.88 7.44-16.74l9.3-3.72c11.16-3.72 20.46-7.44 26.04-11.27l37.2-18.6 41.03-18.6 59.52-27.9 31.62-18.6h3.72c5.58 0 7.44 3.72 7.44 11.16 0 14.88-3.72 26.03-14.88 31.61l-78.11 37.2-9.3 5.69-31.61 13.02-26.15 13.02-26.04 13.02-5.58 3.72c-14.88 9.3-26.04 14.88-31.62 14.88-1.86 0-3.72 0-3.72-3.72zm-14.88 763.35c0 9.41-7.44 18.72-22.32 24.3l-7.44 3.72-52.19 20.46-39.06 14.88-53.94 20.46c-16.85 7.44-28.01 13.02-33.59 13.02-3.72 0-5.58-1.86-7.44-5.58 0-3.72 1.86-7.44 3.72-11.16l1.86-3.72 1.86-5.58v-7.44a22.41 22.41 0 0 1 9.3-9.3l33.6-11.16 26.03-9.3 46.5-20.46 37.19-13.14 9.3-3.72c14.99-7.44 26.15-11.16 35.45-11.16 7.44 0 11.16 3.72 11.16 14.88zm-54.05-249.45v-29.76c-1.86-20.46-3.72-29.87-3.72-29.87l-29.76 14.99-22.32 9.3c-24.18 13.02-48.36 26.04-68.82 40.92-7.44 5.58-11.27 11.16-11.27 13.02 0 3.72 9.41 3.72 28.01 3.72 13.02 0 24.18-1.86 35.34-3.72l20.46-1.86c24.18-3.72 40.92-9.3 52.08-16.74zm392.77 1.86v11.16c0 11.16-1.86 24.18-7.44 41.03l-7.44 31.61c-5.58 20.46-16.74 31.62-31.62 31.62-26.04 0-55.91-13.02-91.25-39.06l-11.16-11.16-11.16-13.02-3.72-5.58-13.02-18.72c-1.86-1.86-1.86-3.72-1.86-5.58l-1.86 3.72-3.72 9.3v3.72c-7.44 18.72-16.74 35.45-24.18 46.61-9.3 13.02-24.18 26.03-42.89 37.19-18.6 11.16-35.34 16.74-52.08 16.74-20.46 0-37.19-5.58-52.07-16.74-13.02-11.16-24.18-29.76-28.02-52.07l-7.44-42.89c0 1.86 0 5.58-3.72 7.44l-9.3 9.3-18.6 14.99c-20.46 14.88-44.64 22.32-66.95 24.18l-33.48 3.72h-16.85c-26.04 0-39.06-7.44-39.06-20.46 0-1.86 3.72-11.16 9.3-24.3 1.86-3.72 3.72-9.3 5.58-14.88 1.86-5.58 5.58-13.02 11.16-24.18l5.58-7.44c26.15-35.34 59.63-63.35 104.27-83.81l11.16-5.58c16.74-5.58 26.03-9.3 31.61-14.88 3.72-3.72 7.44-11.16 11.16-22.32l1.86-11.16 1.86-16.74c5.7-16.86 9.41-24.3 13.14-24.3 1.86 0 3.72 5.58 5.58 14.88v29.87c0 20.46 1.86 48.35 3.72 87.53l3.72 42.77c5.58 52.08 27.9 78.23 70.68 78.23 13.02 0 29.76-5.58 46.49-14.88 16.86-9.3 29.87-22.43 39.18-35.45 9.3-13.02 14.88-27.9 14.88-40.92v-7.44l-11.16-65.21-1.86-11.16-11.16-67.07v-16.74l5.58-22.32 1.86-13.02c1.86-13.02 5.58-20.46 9.3-20.46 3.72 0 5.58 1.86 7.44 5.58l1.86 11.16 3.72 18.6 1.86 11.16c0 3.72 1.86 13.02 3.72 24.18 1.86 9.3 3.72 18.72 3.72 24.3l1.86 11.16v9.3l13.02 74.51c7.44 37.2 31.61 65.1 68.81 85.55l11.28 5.58c16.74 7.44 27.89 11.28 35.34 11.28 9.3 0 14.88-3.84 14.88-13.14 0-1.86-1.86-7.44-5.58-14.88-3.72-7.44-11.16-24.18-22.32-48.35-16.74-37.31-27.9-70.79-33.59-100.55l-7.44-33.59c-3.72-14.88-3.72-26.04-3.72-31.62 0-9.3 0-16.74 1.86-22.32 3.72-16.74 5.58-26.03 7.44-31.61 1.86-3.72 3.72-7.44 5.69-7.44 1.86 0 3.72 3.72 7.44 7.44 1.86 5.58 3.72 13.02 5.58 20.46l5.58 33.48c1.86 16.74 5.58 31.62 11.16 48.47a435.14 435.14 0 0 0 29.76 63.24c13.02 28.01 20.46 46.61 22.32 59.63l3.72 22.32zm-625.38 270.04c0 3.72 1.86 5.58 1.86 9.3 0 5.58-3.72 13.02-11.16 20.46-7.44 7.44-13.02 13.02-20.46 16.74l-11.16 5.58-11.27 5.58-117.17 42.89-24.18 7.44-11.27 3.72c-7.44 1.86-13.02 3.72-16.74 3.72-5.58 0-7.44-1.86-7.44-5.58 0-3.72 0-5.58 1.86-9.3 0-3.72 1.86-7.44 1.86-13.02 1.86-3.84 3.72-7.56 9.3-11.28 3.72-1.86 9.3-5.58 18.72-7.44 9.3 0 14.88-1.86 16.74-1.86l31.62-13.02 74.39-26.04 20.46-7.44 9.42-3.72c20.46-11.16 33.48-16.74 40.92-16.74h3.72zm-230.86 24.18c-5.58 0-7.44-1.86-7.44-7.44 0-3.72 1.86-9.3 5.58-18.6 1.86-3.72 5.58-7.44 9.3-7.44l3.72-1.86c9.3-1.86 13.02-3.72 13.02-5.58-1.86-1.97-7.44-3.84-16.74-7.55-9.3-3.72-14.88-7.44-20.46-11.16-3.72-1.86-5.58-5.58-5.58-11.16 0-14.88 13.02-35.34 39.06-55.8l13.14-9.3c1.86-3.72 9.3-7.44 18.6-11.27h1.86c1.86 0 5.58 1.86 13.02 3.84 5.58 1.86 11.16 3.72 16.74 9.3 3.72 5.58 7.44 13.02 7.44 18.6 0 3.72-1.86 9.3-5.58 14.88-3.72 5.58-7.44 7.44-11.16 7.44-3.72 0-5.58-1.86-9.3-3.72l-5.58-5.58c-5.58-7.44-11.16-9.3-16.74-9.3h-1.86l-16.85 11.16c-5.58 3.72-9.3 7.44-9.3 11.16 0 1.86 3.72 5.58 13.02 9.3l16.86 7.44c11.16 5.58 26.03 9.3 44.64 9.3 5.58 0 13.02-1.86 24.18-3.72 9.3-1.86 18.6-3.72 22.32-3.72 5.58 0 9.3 1.86 9.3 7.44 0 3.72-1.86 9.3-5.58 16.74l-5.58 7.56c-3.72 1.86-5.58 1.86-9.3 1.86-16.74 1.86-33.48 3.72-50.22 9.3l-50.33 16.74-3.72 1.86c-11.16 5.58-16.74 9.3-20.46 9.3zm-18.6-560.51-5.58-31.62c0-9.3-1.86-20.46-3.72-33.48l-3.72-18.6-3.72-16.86-1.86-22.32-1.86-26.03c0-5.58 0-9.3 1.86-11.16l1.86-3.72v-5.58l1.86-3.72v-14.88l1.86-9.3 3.72-7.56c3.72-3.72 5.58-5.58 7.44-5.58 1.86 0 5.58 5.58 7.44 22.44l3.72 35.34 5.58 26.04 3.72 18.6 3.72 18.72 5.58 39.06 24.3 135.89 14.88 100.55c5.58 46.61 9.3 81.95 11.16 106.13l-1.86 18.6c-5.58 57.77-13.02 85.67-22.32 85.67-1.86 0-3.84-5.58-3.84-16.74l1.98-33.48-1.98-3.72-1.86-29.76-1.86-15-11.16-91.25-22.32-137.74-13.02-68.93zm-245.73 29.87c11.28 7.44 16.86 14.88 16.86 24.18v5.58c0 3.72-3.72 9.3-7.44 16.74-3.72 7.44-7.56 13.02-11.27 18.6-1.86 3.72-5.58 5.58-7.44 5.58-3.72 0-11.15-3.72-22.32-9.3l-14.88-7.44-7.44-3.72c-5.58-3.72-7.44-7.44-7.44-11.16 0-3.72 1.86-11.16 7.44-20.46 1.86-1.86 3.72-5.58 3.72-11.16l1.86-3.72 1.86-5.58 5.58-9.3c1.86-3.72 3.72-5.58 7.44-5.58 1.86 0 5.58 0 7.44 1.86 3.72 0 13.02 5.58 26.04 14.88zm37.31-139.72c-3.72 9.3-11.16 16.85-22.32 24.29-9.3 5.58-22.43 9.3-33.59 9.3-3.72 0-9.3-1.86-13.02-5.58l-5.58-3.72h-1.86s0 1.86-1.86 1.86l-7.44 13.02c-1.86 1.86-7.44 5.58-16.74 9.3-7.44 1.86-16.74 3.72-24.18 3.72-20.46 0-29.76-7.44-29.76-20.46 0-20.46 3.72-37.31 11.16-50.33 3.72-7.44 7.44-11.16 11.16-11.16 1.86 0 3.72 3.72 3.72 9.3l-1.86 18.6c0 9.3 5.58 13.14 16.74 13.14h9.3c14.88-3.84 22.32-5.69 22.32-11.27l-1.86-14.88c-1.86-7.44-3.72-13.02-3.72-18.6l1.86-1.86v-7.44l1.86-9.3 3.72-9.3c1.86-5.58 3.72-7.44 7.44-7.44 5.58 0 9.3 9.3 9.3 29.76 1.86 22.32 7.44 31.61 16.74 31.61 9.3 0 18.72-1.86 22.44-3.72 5.58-1.86 9.3-5.58 9.3-11.16l-5.58-31.62c0-7.44 1.86-14.88 5.58-24.18 1.86-9.3 5.58-13.02 7.44-13.02 9.3 0 13.02 16.74 13.02 50.22 0 14.88-1.86 27.9-3.72 40.92zm-195.52-117.29c-3.72 0-5.58-1.86-5.58-7.44s1.86-14.88 7.44-26.04c1.86-5.58 5.58-9.3 13.14-11.16l27.89-11.16 66.95-31.73 40.92-16.74c11.27-3.72 24.3-9.3 37.31-16.74 13.02-5.58 22.32-11.16 27.9-11.16 3.72-1.86 7.44-3.72 11.16-3.72 5.58 0 7.44 5.58 7.44 14.88 0 14.88-16.74 29.76-52.07 42.78l-31.73 11.27-48.36 22.32c-31.62 14.88-50.22 22.32-55.8 26.04l-16.74 9.3c-11.16 5.58-20.57 7.44-29.87 9.3zm344.42 528.78c0 41.03-11.16 74.51-33.48 106.13-20.57 29.87-50.33 50.33-89.39 61.49-37.2 9.3-59.52 14.88-68.93 14.88-7.44 1.86-16.74 3.72-27.9 3.72-27.9-1.86-52.07-7.44-74.39-20.46s-41.03-27.9-52.19-50.22c-13.02-18.72-18.6-42.89-18.6-67.07 0-16.74 3.72-37.19 11.16-59.63l18.6-61.37c3.72-11.16 7.56-18.6 13.14-24.3 3.72-7.44 7.44-9.3 11.16-9.3 3.72 0 5.58 1.86 5.58 7.44s-1.86 16.85-7.44 31.73c-5.58 13.02-7.44 20.46-7.44 20.46 0 3.72-3.72 9.3-7.44 16.74-3.84 9.3-5.7 16.74-5.7 20.46v13.02l1.86 24.3c3.84 24.18 16.85 44.64 41.03 61.37 24.18 18.6 53.94 28.01 91.14 28.01 44.75 0 89.39-13.14 132.16-41.03l3.72-3.72c13.02-5.58 20.46-13.02 28.01-20.46 5.58-7.44 9.3-14.88 9.3-22.32-3.72-29.87-14.99-65.21-33.6-104.27l-20.46-41.03-9.3-18.6c-3.72-7.44-5.58-14.88-5.58-22.32v-3.72l7.44-41.03c1.86-5.58 3.72-7.44 5.58-7.44 5.58 0 9.3 3.72 14.88 13.02l13.02 26.15c31.73 52.08 48.47 94.97 50.33 132.16 1.86 16.74 3.72 27.9 3.72 37.2zm-513.77-20.46v-11.16c0-26.03-3.72-57.65-9.3-94.97l-1.86-18.6c-1.86-18.6-5.58-31.62-7.44-37.2-1.86-5.58-3.72-13.14-3.72-20.57l-3.72-14.88c-1.86-24.18-3.72-40.92-9.3-52.07-5.58-13.02-9.3-31.73-13.02-54.05l-7.44-44.64-14.88-78.23-7.44-44.64c-1.86-16.85-5.58-24.3-9.3-24.3-1.86 0-3.72 1.86-5.58 3.72 0 3.72-1.86 7.44-1.86 14.99-1.86 7.44-3.72 13.02-5.58 20.46-1.86 9.3-3.72 16.74-3.72 22.32 0 1.86 0 11.16 3.72 24.18l3.72 26.04 1.86 14.99c9.3 35.34 20.46 81.83 29.76 141.47l18.6 104.27 11.16 61.49 14.88 126.59c1.86 18.6 3.72 26.03 5.58 26.03 1.86 0 3.72-1.86 5.58-7.44l3.72-11.16 3.72-13.02c1.86-5.58 1.86-14.88 1.86-27.9v-31.74zm50.33-623.74c0-3.72-3.72-7.44-11.16-11.16-5.69-3.72-11.27-5.58-16.85-5.58-14.88 0-26.04 7.44-37.2 20.46-11.16 13.02-18.6 22.32-22.32 27.9-1.86 3.72-3.72 9.41-7.44 14.99h1.86l5.58-1.86 26.04-5.58 7.44-1.97c35.34-14.88 54.05-26.04 54.05-37.2zm-106.13 87.53c-7.44 0-16.74-1.86-27.9-3.72-9.3-3.72-14.88-5.58-16.74-5.58-5.58 0-9.3 0-13.14 3.72l-11.16 11.16c-1.86 1.86-3.72 3.72-3.72 5.58l-1.86 5.58c0 3.72-1.86 5.58-3.72 9.3-1.86 3.72-3.72 5.58-7.44 5.58s-3.72-3.72-3.72-9.3c0-7.44 0-14.88 1.86-18.6l5.58-11.16 3.72-7.44c11.16-16.74 18.6-26.03 26.15-31.61 7.44-5.7 11.16-9.41 14.88-9.41 1.86 0 5.58 1.86 11.16 5.58l9.3 5.69c1.86 1.86 5.58 1.86 9.3 1.86 1.86 0 5.58-1.86 7.44-9.41l5.58-9.3 5.58-13.02 1.86-7.44c24.18-42.78 48.36-63.23 76.26-63.23 11.27 0 20.57 3.72 28.01 11.16 7.44 5.58 9.3 14.88 9.3 27.9 0 11.16-1.86 22.32-9.3 35.34-5.58 13.02-13.02 24.3-22.32 29.87-35.45 27.9-67.07 40.92-94.97 40.92zm-336.87 124.73c3.72-3.72 3.72-7.44 3.72-11.16 0-3.72 0-5.58-3.72-5.58s-9.3 3.72-13.02 11.16c-3.84 7.44-7.56 20.46-13.14 42.89v5.58c0 16.74 7.44 24.18 26.15 24.18 5.58 0 11.16 0 18.6-1.86l13.02-5.58 13.02-7.44 5.58-1.86h5.58c13.02 0 27.9-3.72 42.78-11.16 14.88-5.58 26.04-14.99 31.62-26.15l1.86-7.44a110.65 110.65 0 0 0 3.84-29.76c0-14.88-1.86-27.9-3.84-39.06-1.86-11.28-5.58-16.86-9.3-16.86-3.72 0-7.44 3.72-9.3 11.28-1.86 7.44-3.72 14.88-3.72 26.03 0 5.58 0 11.16 1.86 14.88 1.86 3.72 1.86 7.44 1.86 11.16 0 5.58-3.72 11.16-9.3 14.88-5.58 3.72-14.88 5.58-26.04 9.3h-3.72c-5.58 0-9.3-1.86-11.16-3.72 0-3.72-1.86-13.02-1.86-29.76v-5.58c-1.86-9.3-3.72-13.02-9.3-13.02-3.72 0-5.58 1.86-7.44 5.58 0 3.72-1.86 11.16-3.72 22.32 0 11.16-1.86 18.6-1.86 22.32-1.86 1.86-1.86 5.58-3.72 9.3-5.58 7.44-13.02 11.16-26.04 11.16-9.3 0-13.02-3.72-13.02-11.16 0-3.72 0-7.44 3.72-14.88zm-57.77-96.83c27.9-13.02 57.77-27.9 93.11-46.49 33.48-16.74 59.51-29.76 78.11-37.31 18.6-7.44 33.59-14.88 41.03-24.18 9.3-7.44 14.88-18.6 14.88-29.76 0-5.58-1.86-9.3-7.44-9.3-1.86 0-5.58 1.86-9.3 3.72l-9.3 5.58-13.13 5.58-39.06 20.46-55.8 26.03-39.06 22.44c-20.58 13.02-39.18 20.46-55.91 26.03-7.44 1.86-13.02 5.58-14.88 13.02l-3.72 18.6-1.86 5.58c0 3.72 1.86 5.58 5.58 5.58h5.58l11.15-5.58zm-63.23 504.6v-26.04l-3.72-24.18c0 3.72-22.32 13.02-67.07 27.9-22.32 7.44-40.92 16.74-55.8 27.9-14.88 13.02-22.32 20.46-22.32 24.18 0 1.86 1.86 1.86 7.44 3.72l52.08-1.86 22.32-3.72h11.16l9.3-1.86 11.28-1.86 5.58-1.86 13.02-5.58 11.16-3.72c3.72 0 5.58-3.72 5.58-5.58v-7.44zm387.08-9.3 1.86 18.6c0 11.16-1.86 24.18-3.72 37.32l-3.72 18.6-3.72 11.16c-7.44 22.32-16.74 35.34-27.9 37.2h-14.88c-5.58 0-13.02 0-18.6-1.86l-20.46-5.58c-18.6-5.58-35.34-13.02-50.33-24.18l-13.02-11.16-5.58-5.58-3.72-3.72-5.58-13.02c-3.72-5.58-5.58-9.3-7.44-11.16v1.86c0 3.72-5.58 14.88-16.74 35.34-13.02 20.46-20.46 31.61-22.32 33.48a148.95 148.95 0 0 1-39.06 27.9c-13.02 9.41-29.87 13.13-48.47 13.13-22.32 0-40.92-9.3-53.94-24.29-14.88-14.88-22.32-37.2-26.03-66.95l-3.72-24.3 1.86-3.72-5.58 9.41c-7.44 13.02-13.02 20.46-18.6 24.18l-9.3 3.72-11.28 9.3-11.16 7.44c-22.32 11.16-50.22 16.74-83.69 16.74-13.02 0-27.9-1.86-44.64-5.58-9.41-1.86-13.14-5.58-13.14-11.16l1.86-7.44v-1.86c11.27-27.9 16.85-46.61 20.57-54.06 3.72-7.44 9.3-14.88 14.88-22.32l11.16-11.16c16.74-20.46 40.92-39.06 68.82-52.07l18.6-9.41 18.6-7.44 20.58-9.3c11.15-5.58 18.6-13.02 20.46-24.18l1.86-13.02c1.86-5.58 3.72-11.16 5.58-18.6 3.72-5.58 5.58-9.3 7.44-9.3 3.72 0 7.44 9.3 9.3 26.04v16.74c1.86 18.6 3.72 44.64 5.58 80.09l1.86 42.77c5.58 46.61 27.9 70.79 65.09 70.79 16.86 0 33.6-3.72 48.48-11.16 14.88-7.44 27.9-18.6 39.06-31.62 9.3-14.99 14.88-26.15 14.88-37.31 0-3.72 0-9.3-1.86-18.6l-20.46-100.55c-3.72-20.46-5.58-37.2-5.58-54.05l1.86-13.02 5.58-39.06c0-3.72 0-9.3 3.72-13.02 1.86-3.72 3.72-7.44 7.44-7.44s7.44 11.16 9.3 31.62l1.86 22.32c3.72 35.45 7.44 63.35 13.02 80.09l7.44 26.04 3.72 35.45c3.72 20.46 11.16 37.19 20.46 50.22 9.41 11.16 22.43 22.32 39.17 29.76 22.32 11.28 42.78 16.86 61.37 16.86 9.3 0 14.88-3.72 14.88-9.3 0-3.84-1.86-9.41-5.58-18.72l-3.72-11.16-13.02-29.76c-18.6-42.78-31.62-80.09-39.06-113.57l-3.72-22.32c-5.58-18.72-7.44-33.59-7.44-46.61 0-5.58 0-13.02 3.72-18.6l1.86-26.04c1.86-9.3 3.72-14.88 9.3-14.88 3.72 0 9.3 13.02 14.88 40.92 3.72 26.04 7.44 42.78 9.3 48.36 1.86 5.69 3.72 13.13 5.58 22.43 3.72 7.44 11.16 24.18 20.46 48.36 11.16 26.03 18.6 42.89 24.18 55.91 3.72 13.02 7.44 26.04 9.3 39.06zm-597.47-255.03c-1.86 0-3.72-1.86-3.72-5.58 0-3.84 1.86-13.14 5.58-29.87 3.72-5.58 9.3-9.3 22.43-13.02l3.72-1.86 55.8-24.18 117.28-55.91 5.58-3.72c1.86 0 1.86-1.86 5.58-3.72 1.86-1.86 3.72-3.72 5.58-3.72 5.58 0 9.3 5.58 9.3 16.74 0 13.14-7.44 24.3-24.18 31.73l-41.03 18.6c-14.88 7.44-29.76 14.88-42.78 20.46l-37.19 16.74c-24.18 9.3-40.92 18.6-53.94 24.18-11.27 7.56-18.72 11.27-20.57 13.14h-7.44zm-1140.89-59.64h-3.72c-1.86 0-3.72-1.86-3.72-5.58 0-1.86 0-5.58 1.86-9.3l3.72-13.02c1.86-5.58 3.72-11.16 7.44-13.02l9.3-5.58 7.44-3.72 11.16-5.69c18.6-9.3 35.34-18.6 53.94-26.04 16.74-7.44 44.64-18.6 80.09-37.19l46.49-24.18 55.8-28.01c14.99-7.44 24.3-13.02 29.87-13.02 5.58 0 7.44 5.58 7.44 13.02v9.3c-1.86 9.42-9.3 16.86-18.6 22.44l-11.28 5.58-13.02 3.72c-22.32 9.3-42.78 20.46-63.23 31.61l-31.62 14.88-20.46 11.16-98.69 44.75-39.06 24.18-11.16 3.72zm978.97 223.41c5.58 9.3 7.44 18.6 7.44 27.9 0 13.14-3.72 28.02-13.02 42.89-7.44 14.88-11.16 26.04-13.02 29.76l-3.72 5.58c-7.44 20.46-14.88 31.73-22.32 31.73h-7.44l-7.44-1.86h-7.44l-37.2 5.58-48.47 9.3-65.09 7.44-41.03 9.3-29.76 3.72-74.4 5.58-33.48 5.58-37.31 3.72c-3.72 0-13.02 1.86-26.04 3.72-18.6 5.58-33.48 7.44-40.92 7.44l-3.72-1.86h-11.16l-37.31 5.58-70.67 3.72-18.6 1.86-24.18 3.72c-13.02 1.86-24.18 1.86-33.6 1.86h-20.46l-24.18 1.86h-14.88c-5.58 0-11.16 0-18.6 1.86-5.58 1.86-13.02 1.86-18.6 1.86h-48.36l-20.58 1.86-46.49-3.72h-35.34c-59.63-5.58-100.55-13.02-121.01-24.18-22.32-9.3-39.06-27.9-53.94-53.94-13.02-26.15-22.44-63.35-28.02-109.97l-7.44-50.22-18.6-143.32-1.86-11.27-1.86-11.16c0-7.44-1.86-18.6-3.72-29.76l-1.86-9.3-3.72-7.44-1.86-9.3-1.86-16.74c0-7.44-1.86-13.02-5.58-16.86l-5.58-9.3c-1.86-3.72-3.72-7.44-3.72-11.16 0-3.72 1.86-11.16 7.44-24.18l5.58-11.16c1.86-1.86 3.72-3.72 5.58-3.72 5.58 0 11.16 5.58 16.74 16.74 5.58 11.16 11.16 27.9 13.02 48.47l3.72 31.61 9.3 33.48c1.86 29.76 3.72 48.48 5.7 54.06l1.86 11.16 3.72 29.76c0 3.72 0 9.3 1.86 16.74l7.44 37.31v11.16c0 46.49 11.16 91.25 33.48 128.44 18.6 31.62 50.22 50.22 94.85 57.77l20.57 3.72 59.52 5.58c31.62 3.72 63.23 5.58 98.69 5.58 31.62 0 65.1-1.86 96.71-3.72l202.95-16.85 66.95-5.58 113.57-14.88 18.6-1.86h7.44l14.88-1.86h13.02l3.72 1.86h1.86v-3.72h5.58l7.44-1.86 26.15-3.72 11.16-1.86 13.02-3.72c9.3-1.86 16.74-1.86 24.18-1.86h14.88c18.6-1.86 31.62-3.72 37.2-5.58 7.44-1.86 20.46-3.72 41.03-3.72h1.86c5.58 0 13.02 0 20.46-3.72a196.18 196.18 0 0 0 13.02-3.72h13.02c5.58 0 9.3-1.86 13.02-3.72 3.72-1.86 5.58-3.72 5.58-7.44 0-1.86-1.86-3.72-1.86-5.58-5.58-11.16-16.74-18.6-29.76-26.04-13.02-5.69-33.48-7.56-61.49-7.56-27.9 0-53.93 0-78.11 3.72l-81.95 11.27-50.22 3.72-39.06 7.44c-16.74 3.72-41.03 5.58-72.65 7.44l-24.18 3.72-26.03 1.86-184.24 14.88h-29.87l-83.69 3.72c-39.06 0-68.93-3.72-89.39-11.16-18.6-7.44-29.76-18.6-29.76-31.62 0-5.58 1.86-11.27 3.72-18.71l9.3-11.16 3.72-5.58 7.44-18.6 11.16-13.02 26.04-27.9c42.89-42.89 87.53-78.23 135.88-104.27l52.19-28.02 27.9-11.16c13.02-7.44 24.18-11.16 29.76-11.16a14.2 14.2 0 0 1 9.3 3.72s1.86 3.72 1.86 7.44 0 5.58-1.86 9.3l-5.58 7.44-16.74 26.16c-1.86 3.72-7.44 7.44-13.02 9.3-24.18 5.58-42.78 13.02-61.37 26.04l-41.03 22.32-24.18 16.74-24.18 16.85-24.18 16.74-27.9 18.6c-9.3 9.3-16.85 16.74-20.57 22.32-3.72 5.58-5.58 7.44-5.58 9.3 0 1.86 1.86 1.86 3.72 3.72l3.72 1.86c9.42 3.72 16.86 5.58 22.44 7.44h7.44c24.18 3.72 48.36 3.72 74.39 3.72 52.19 0 93.11 0 124.73-1.86l37.2-3.72h29.76c5.58 0 24.3-1.86 57.77-5.58l20.46-1.86 29.76-1.86h14.88c22.32 0 35.45-1.86 39.17-5.58h3.72c1.86 0 3.72 0 5.58-1.86 1.86-1.86 5.58-1.86 7.44-1.86l29.76-1.86 9.3-1.86 134.03-20.46 46.49-3.72c37.2-3.72 63.35-5.58 74.51-5.58 46.49 0 74.39 11.16 85.55 35.34zM3575.56 459.96l3.72-7.56 7.44-18.6c1.86-5.58 3.72-9.3 7.44-9.3s5.58 0 9.3 1.86l18.6 11.16c14.99 11.16 24.3 22.43 24.3 31.73l-1.86 7.44-5.58 11.16c-9.41 16.74-16.85 26.04-22.43 26.04 0 0-5.58-1.86-13.02-7.44-7.44-5.58-13.02-9.3-14.88-9.3l-9.3-3.72c-7.44-1.86-13.02-7.44-13.02-13.02l3.72-9.3 1.86-3.72c0-3.72 1.86-5.58 3.72-7.44zm-87.41-113.68-3.72 1.86c-1.98 0-3.84-3.72-3.84-9.3 0-3.72 0-13.02 3.84-24.18 1.86-3.72 3.72-7.44 5.58-9.3l5.58-1.86 76.26-39.06 81.95-35.45 22.32-11.16 20.46-13.02c11.16-5.58 16.74-9.3 20.46-9.3 5.58 1.86 9.3 5.58 9.3 13.02 0 14.88-5.58 24.18-18.6 29.76l-9.3 5.58a707.18 707.18 0 0 1-66.95 33.6c-29.87 13.02-46.61 18.6-50.33 22.32l-42.78 20.46-13.02 7.44-26.04 13.02-11.16 5.58zm338.72 366.85c0 40.92-9.3 76.37-26.03 104.27-18.6 29.76-42.89 50.33-76.37 65.21-33.48 14.88-68.82 22.32-107.99 22.32-27.9 0-53.94-3.72-76.26-14.88-24.18-9.3-42.77-22.32-57.77-41.03-14.88-16.74-22.32-35.34-24.18-53.93v-14.88l-1.86-9.3-1.86-11.27v-1.86c0-3.72 0-5.58 1.86-7.44 1.86-13.02 3.72-22.32 5.58-24.18 0-11.16 3.72-26.04 11.16-42.78 9.3-18.6 13.14-29.87 14.99-33.59 0-3.72 3.72-9.3 5.58-16.74 3.72-5.58 7.44-9.3 9.3-9.3 1.86 0 3.72 1.86 5.58 5.58 0 5.58 1.86 7.44 1.86 11.16 0 7.44-3.72 18.72-9.3 31.73-5.58 13.02-7.44 20.46-9.3 22.32 0 3.72 0 5.58-1.86 7.44-1.86 7.44-3.72 16.74-3.72 26.04 0 20.46 7.44 39.18 20.46 55.91 13.02 16.74 29.76 29.76 52.08 39.06 22.32 9.3 44.64 14.88 66.95 14.88 31.73 0 67.07-7.44 107.98-24.18l18.6-7.44 7.44-5.58 7.44-5.58 7.44-5.58c20.57-14.88 29.87-27.9 29.87-37.32 0-11.16-3.72-29.76-13.02-53.93-7.44-24.18-16.85-46.61-28.01-65.21l-14.88-22.32-9.3-20.46c-1.86-3.72-3.72-7.44-3.72-11.16 0-1.86 1.86-5.58 1.86-9.3 1.86-3.72 3.72-9.3 5.58-18.71 0-9.3 1.86-14.88 1.86-18.6 1.86-1.86 1.86-3.72 3.72-5.58 1.86-1.86 3.72-1.86 3.72-1.86 5.58 0 14.88 13.02 28.01 39.17l18.6 35.34c16.74 35.34 26.04 67.07 27.9 98.69v14.88zm-813.45-310.94c-1.86-1.86-1.86-3.72-1.86-7.44 0-18.6 3.72-31.62 13.02-37.2l26.15-11.27 22.32-13.02 100.43-50.22c9.3-3.72 20.57-9.3 28.02-16.74 20.46-13.02 35.34-20.58 48.35-20.58 5.58 0 7.44 5.7 7.44 13.14 0 16.74-9.3 27.9-29.76 35.34l-9.3 3.72-35.45 20.46-98.57 48.47-16.74 9.3-26.04 16.74c-11.27 7.44-18.71 9.3-24.29 9.3h-3.72zm20.46 577.25c0 14.88-13.02 26.04-39.06 33.48l-20.46 9.3-48.36 20.46c-37.31 18.6-72.65 31.73-104.27 37.31h-5.58c-3.72 0-7.44-1.86-7.44-7.44 0-7.56 1.86-13.14 5.58-20.58 3.72-7.44 5.58-11.16 7.44-11.16l16.74-3.72 52.08-18.6 87.53-37.19 13.02-3.72 18.6-9.3c5.58-1.97 9.3-1.97 13.02-1.97 1.86 0 5.58 1.97 7.44 3.84 1.86 3.72 3.72 5.58 3.72 9.3zm-221.44-37.31c0 1.86-3.72 7.44-7.44 13.02-3.72 7.44-9.3 13.13-14.88 18.71-3.72 3.72-9.3 7.44-11.16 7.44-1.86 0-9.3-3.72-20.46-7.44l-22.44-14.99-5.58-1.86c-3.72 0-5.58 1.86-9.3 5.58l-11.16 14.99c-11.16 14.88-22.32 22.32-33.48 22.32-3.72 0-7.44 0-11.16-1.86l-22.32-11.16c-11.16-5.58-18.6-9.3-22.32-13.02-1.86-1.86-3.72-5.58-3.72-7.55 0-1.86 1.86-5.58 3.72-9.3 1.86-3.72 3.72-7.44 3.72-9.3 0-1.86 3.72-7.44 9.3-14.88l5.58-7.44 7.44-7.44c1.86-1.86 3.72-1.86 7.44-1.86s5.58 0 11.16 3.72l7.44 3.72 7.44 3.72c18.6 11.16 29.76 16.74 37.2 16.74 1.86 0 7.44-5.58 13.02-18.6l5.58-9.3c9.3-14.88 16.86-22.32 24.3-22.32 7.44 0 18.6 7.44 31.62 18.6 13.02 13.02 20.46 22.32 20.46 27.9v1.86zm-411.37-608.86c3.72-1.86 5.58-1.86 7.44-1.86 5.58 0 7.44 3.72 7.44 9.3 0 18.72-7.44 29.87-22.32 35.45l-72.53 33.48-54.05 20.46-37.2 14.88-9.3 3.72-9.3 5.69c-9.3 3.72-16.74 7.44-20.46 7.44-3.72 0-5.58-1.86-5.58-5.58 0-3.84 0-7.56 1.86-11.28l1.86-5.58 1.86-5.58c0-5.58 1.86-11.16 7.44-13.02l46.49-20.46 59.63-24.18c37.2-14.88 68.82-28.02 96.71-42.89zm-219.58 44.75c-1.86-1.86-1.86-1.86-1.86-3.72 0-13.02 3.72-24.18 11.16-35.45l1.86-1.86 7.44-1.86 18.6-9.3 13.02-5.58 31.61-18.6 72.65-35.34 33.48-14.88c13.02-7.56 22.32-11.28 27.9-11.28 5.58 0 7.44 1.86 7.44 9.42 0 14.88-5.58 26.03-16.74 31.61l-72.53 33.48-33.59 16.74-11.16 3.72-16.74 11.16-27.9 16.85c-7.44 3.72-14.88 7.44-24.18 11.16-7.44 3.72-14.88 5.58-16.74 5.58-1.86 0-3.72 0-3.72-1.86zm193.54 385.45h3.72c-3.72-11.28-13.02-31.73-27.9-59.63-5.58-11.16-11.16-16.74-16.74-16.74-3.72 0-7.44 1.86-13.02 5.58l-5.58 5.58-5.58 7.44-7.56 11.16c-1.86 5.58-3.72 9.3-3.72 11.16 0 3.72 1.86 5.58 3.72 5.58l13.14 7.44 3.72 1.86 37.2 14.88c9.3 3.84 16.74 5.7 18.6 5.7zm936.2-96.83v3.72c0 5.58-3.72 16.74-14.88 33.48l-9.3 14.88c-3.72 7.44-18.6 20.46-40.92 37.2-22.32 16.86-46.5 31.73-72.65 42.89-42.77 18.6-83.69 27.9-122.75 27.9l-20.57-1.86c-40.92 0-70.68-11.16-85.55-33.48-9.3-11.16-16.74-22.32-24.18-33.6-7.44-11.16-11.16-18.6-11.16-22.32h1.86l-5.58 13.02-18.72 46.61c-5.58 14.88-11.16 24.18-14.88 27.9-3.72 3.72-9.3 7.44-18.6 7.44-16.74 0-35.34-7.44-59.52-18.6l-13.02-7.44-7.44-3.72c-3.72-1.86-5.58-5.58-7.44-7.44l-1.86-9.3v-3.72l-18.72 18.6c-11.16 7.44-22.32 14.88-37.2 20.46l-37.19 13.02c-11.16 3.72-26.04 7.44-44.64 9.3l-44.75 3.72-11.16 1.86h-13.02l-22.32-1.86-22.32-1.86-9.3-1.86-16.74-7.44-20.46-3.72-7.44-5.58c-7.44-3.72-14.99-5.58-18.71-7.44-1.86 0-1.86 1.86-3.72 3.72-3.72 14.88-7.44 20.46-7.44 22.32-1.86 0-1.86 1.86-3.72 1.86-3.72 0-9.3-1.86-14.88-3.72l-5.58-1.86-20.46-5.58-63.24-13.02c-7.44-1.86-14.88-5.58-22.43-11.16l-7.44-3.72c-1.86 0-9.3-5.58-22.32-18.6l-1.86-1.86c-3.72 0-7.44 3.72-13.02 9.3-3.72 7.44-7.44 13.02-11.16 22.32-7.44 13.02-20.46 22.32-37.2 29.76-14.88 7.44-35.34 11.16-55.91 11.16-27.9 0-52.08-9.3-68.82-26.04-16.74-14.88-27.9-42.77-31.61-80.09l-14.88-102.4-14.88-148.91c-9.3-80.09-18.72-154.6-31.73-223.41-3.72-14.88-5.58-24.18-5.58-27.9v-9.42l5.58-18.6 5.58-13.02c3.72-9.3 7.44-14.88 11.16-14.88 9.41 0 16.86 27.9 22.44 85.67l7.44 68.81c9.3 72.65 14.88 119.27 14.88 141.58 1.86 22.32 3.72 48.35 9.3 80.09 0 7.44 1.86 14.88 3.72 22.32l3.72 26.04 7.44 63.35c3.72 35.34 13.02 63.23 27.9 81.95 14.88 18.6 37.2 27.9 63.35 27.9 27.9 0 53.93-7.44 79.97-24.18v-3.72l7.44-11.28 3.72-3.72 22.32-37.2 7.44-13.02 13.02-16.74c18.72-20.46 35.45-31.73 52.19-31.73 7.44 0 14.88 3.72 20.46 11.27l29.76 42.78 7.44 9.3c24.18 27.9 61.49 48.48 113.57 61.49 7.44 1.86 11.16 1.86 16.74 1.86h16.74l37.19 3.72c13.14 0 26.15 0 39.18-1.86l26.03-3.72c61.37-9.3 102.41-31.73 122.87-63.35l3.72-5.58 11.16-18.6 3.72-3.72c3.72 0 5.58 1.86 5.58 3.72 1.86 1.86 1.86 5.58 1.86 7.44l-20.46 44.64c0 3.72-1.86 5.58-1.86 7.44 0 3.72 3.72 5.58 11.16 7.44a489.4 489.4 0 0 0 24.18 5.58l20.46 3.84h31.62c5.58 0 9.3-5.7 13.02-14.99 3.72-9.3 7.44-18.6 7.44-31.62l-3.72-48.36-7.44-55.91-16.74-98.69-5.58-46.49-11.16-67.07-13.02-80.09-1.86-20.46c0-3.72 1.86-9.3 3.72-18.6 3.72-9.3 5.58-16.74 5.58-22.32 1.86-7.44 1.86-11.16 3.72-14.99 1.86-1.86 3.72-3.72 5.58-3.72 3.72 0 7.44 7.56 9.3 20.58l14.88 98.69 14.88 78.11 14.99 89.39 5.58 61.49c7.44 53.93 22.32 98.69 46.49 132.16 7.44 9.3 16.74 16.74 31.62 26.03 14.88 7.44 29.76 11.16 40.92 11.16l9.3-1.86c-7.44-13.02-14.88-26.04-20.46-40.92-3.72-14.88-7.44-27.9-7.44-39.06l1.86-9.3c0-5.58 1.86-13.14 5.58-22.43l9.3-18.6 7.44-16.74c7.56-24.18 24.3-46.49 46.61-65.21 22.32-16.74 44.64-26.03 68.81-26.03a64.23 64.23 0 0 1 33.48 9.3c9.41 7.44 14.99 11.16 18.72 11.16 3.72 1.86 5.58 3.72 11.16 5.58l11.16 9.3 9.3 7.56c13.02 11.16 18.6 18.6 20.46 26.03 0 0-1.86 1.86-1.86 3.72-1.86 1.86-3.72 1.86-5.58 1.86l-3.72-1.86-14.88-5.58-3.72-3.72c-5.58-5.58-20.46-11.16-42.89-11.16h-7.44c-16.74 0-35.34 3.72-59.52 14.88-22.32 9.3-40.92 20.46-52.07 33.48l-7.44 5.58c-1.86 1.86-3.72 3.72-3.72 7.44v9.3l3.72 9.3 5.58 16.85c1.86 9.3 11.16 24.18 22.32 40.92a86.1 86.1 0 0 0 29.76 27.9c13.02 7.44 24.18 11.16 37.19 11.16h11.16c31.73-7.44 63.35-22.32 96.83-46.49l24.18-18.6 11.16-13.02c5.58-5.58 9.3-7.44 11.16-7.44 3.72 0 5.58 1.86 5.58 5.58zM1410.81 381.73l1.86-11.16c0-1.86 1.86-5.58 3.72-11.16l11.27-3.72 5.58-1.86 3.72-1.86 9.3-3.84 3.72-1.86s1.86 0 3.72-1.86c13.02-7.44 35.34-18.6 66.95-31.62 29.76-13.02 48.47-20.46 57.77-24.18l29.76-13.02 16.74-7.44 24.18-13.02 39.06-15 3.72-1.86 5.58-3.72 5.58-1.86c1.86 0 3.72 1.86 5.58 5.58 0 3.72 1.86 5.58 1.86 7.44 0 11.28-1.86 18.72-7.44 22.44-3.72 5.58-16.74 11.16-35.34 18.6-18.6 5.58-40.92 16.74-68.81 29.76-26.04 13.02-44.75 20.46-57.77 24.18l-24.18 11.27-24.18 11.16-14.88 9.3c-9.3 3.72-14.88 5.58-18.6 5.58-1.86 0-11.16 3.72-22.32 9.3-13.02 7.44-22.43 11.16-26.15 11.16-1.86 0-3.72-1.86-3.72-5.58 0-1.86 0-5.58 3.72-11.16zm-104.15 500.88c-1.86 9.3-9.3 18.6-22.32 24.18l-29.87 11.16c-13.02 5.58-33.48 11.16-57.66 20.46l-98.69 35.45-3.72 1.86h-5.58l-1.86 1.86c-1.86 0-3.72-1.86-3.72-1.86-1.86 0-1.86-1.86-1.86-3.72s0-3.72 1.86-7.56c0-3.72 1.86-5.58 1.86-5.58 0-13.02 7.44-22.32 18.6-26.03l111.71-37.2c24.18-9.3 39.06-14.88 48.35-18.6 14.99-7.44 24.3-11.16 28.02-13.14 3.72-1.86 5.58-1.86 7.44-3.72 5.58 0 9.3 5.7 9.3 13.14l-1.86 9.3zm-348.14 20.46c0 7.44-9.3 18.6-26.04 31.62l-9.3 7.44c-1.86 1.86-3.72 1.86-5.58 1.86-3.72 0-11.16-3.72-24.18-11.16-11.16-9.3-16.74-13.02-20.46-13.02-1.86 0-3.72 1.86-5.58 3.72l-29.76 31.62c-3.72 1.86-7.44 3.72-11.27 3.72-3.72 0-7.44-1.86-13.02-3.72-3.72-3.72-11.16-7.44-18.6-9.3-5.58-3.72-11.16-5.58-16.74-9.3-3.72-3.72-5.58-7.44-5.58-11.16v-1.86c3.72-13.02 9.3-24.18 16.74-33.48 5.58-9.3 13.02-13.02 18.6-13.02 1.86 0 5.58 0 9.3 1.86 1.86 1.86 5.58 3.72 9.3 5.58 14.99 7.44 24.29 13.02 28.01 14.88 3.72 3.72 7.44 3.72 9.3 3.72 5.58 0 14.88-9.3 24.18-27.9 5.58-11.27 13.02-16.85 18.6-16.85 5.58 0 14.88 5.58 29.76 18.72 14.88 11.16 22.32 20.46 22.32 26.03zM305.25 284.91c-1.86 0-1.86-1.86-1.86-5.58 0-3.72 0-7.44 1.86-11.16l3.72-16.74a22.62 22.62 0 0 1 9.3-9.41l5.58-3.72 7.44-1.86 18.6-7.44 18.6-9.3 18.6-9.3 18.72-9.3 14.88-9.3 52.07-24.18 7.44-3.72c18.6-14.88 31.61-20.57 39.06-20.57 3.72 0 5.58 1.97 7.44 5.69 1.86 1.86 1.86 5.58 1.86 11.16 0 11.16-11.16 24.18-37.19 37.2l-16.74 7.44-35.34 18.6-63.35 29.87-18.6 9.3c-24.18 14.88-40.92 22.32-50.22 22.32h-1.86zm-148.9 147.04v-3.72c0-26.04 9.3-40.92 27.9-44.64l7.44-1.86 29.76-13.02 20.57-7.44 40.92-18.72 20.46-9.3c11.16-3.72 24.18-11.16 35.34-16.74 11.16-7.44 22.32-11.16 27.9-11.16 7.44 0 11.16 3.72 11.16 11.16 0 9.3-1.86 16.74-7.44 22.32-3.72 5.58-11.16 9.3-20.46 13.13-11.16 3.72-16.74 5.58-18.6 7.44l-27.9 13.02-16.74 9.3-18.6 7.44-50.33 20.46c-13.02 7.44-26.04 11.16-37.2 16.74-13.02 3.72-20.46 5.58-22.32 5.58h-1.86zm225.15 303.5c7.56 1.86 15 3.72 20.58 3.72 1.86 0 3.72 0 3.72-1.86-1.86-5.58-1.86-9.3-5.58-14.88l-13.14-24.18-3.72-9.3a195.83 195.83 0 0 0-14.88-16.74c-1.86-1.86-3.72-1.86-7.44-1.86h-3.72c-14.88 3.72-26.04 13.02-33.48 24.18l-1.86 3.72v5.58h-1.86c0 5.58 11.16 13.02 33.48 20.46l27.9 11.16zm1511.47-72.53h1.86v-1.86c-3.72 3.72-7.44 9.3-11.16 18.6 0 0-1.86 1.86-1.86 3.72v3.72l-5.58 11.16c-1.86 3.72-1.86 3.72-1.86 5.58l-1.86 1.86v1.86l-1.86 1.86c0 1.86 0 1.86 1.86 1.86l-1.86 3.72h-1.86l-3.72 3.72c-1.86 1.86-3.84 3.72-3.84 7.44 0 0 0 1.86 1.98 1.86v-1.86h1.86c0 1.86-1.86 1.86-1.86 1.86h-5.7c-1.86-1.86-3.72-1.86-9.3-1.86l-9.3-1.86h-3.72l-9.3-1.86c-7.44-1.86-16.74-3.72-24.18-3.72l-16.74 3.72-27.9-3.72h-3.72l-22.32 1.86h-7.44c-20.57 0-42.89 5.58-65.21 14.88l-24.18 9.3-24.18 11.16-35.34 11.28-68.93 24.18-31.61 5.58c-16.74 5.58-31.62 7.44-40.92 7.44l-52.19 3.72c-24.18 0-44.64-3.72-65.1-13.02-18.6-9.3-39.06-24.18-63.35-46.61l-35.34-35.34-18.6-14.88-11.16-11.16-33.48-27.9-27.9-20.57-37.32-27.9c-14.88-9.3-20.46-14.88-20.46-16.74v1.86s1.86 3.72 3.72 9.3l7.44 11.16c1.86 3.72 3.72 9.3 1.86 13.02 0 5.58 0 9.3 1.86 14.88l1.86 14.99c1.86 14.88 3.72 26.03 3.72 37.19 0 16.74-3.72 33.48-9.3 50.22-7.44 16.86-14.88 31.74-26.04 41.03-11.16 11.16-22.32 14.88-37.2 14.88-5.58 0-14.88-1.86-24.18-5.58l-18.72-9.3-26.03-13.02c-18.6-13.02-29.76-18.72-35.34-18.72l-27.9 18.72c-18.6 13.02-35.34 20.46-48.35 24.18l-28.02 5.58-16.74 3.72-11.16 3.72-9.3 1.86c-7.44 1.86-18.6 3.72-29.76 5.58l-37.2 5.58c-28.01 5.58-55.91 9.3-81.95 9.3-40.92 0-76.25-5.58-107.98-16.74l-33.48-14.88-5.58-1.86c-1.86-1.86-5.58-1.86-9.3-1.86-1.86 0-3.72 1.86-3.72 5.58v1.86l-3.72 7.44c-1.86 3.72-3.72 7.44-7.44 7.44l-13.02-3.72-9.3-3.72-13.02-1.86-14.88-1.86-7.44-1.86-35.45-11.16c-20.46-5.58-35.34-11.16-48.36-20.46l-5.58-3.72-3.72-5.58-5.58-7.56v1.98l-7.44 13.02c-9.3 22.32-22.32 39.06-39.06 48.36-16.85 11.16-39.17 16.74-65.21 16.74-16.74 0-35.34-3.72-50.22-13.02-16.74-9.3-29.76-22.32-41.03-39.06-9.3-16.74-16.74-41.03-20.46-68.93L46.42 532.5 35.26 430.09 24.1 363.14l-3.72-22.43-1.86-14.88-7.44-33.48c0-3.72-3.72-11.16-7.44-22.32-1.86-5.58-3.72-9.3-3.72-13.02l1.86-1.86 3.72-18.72c5.58-20.46 11.16-31.62 14.88-31.62 5.58 0 13.02 11.16 18.6 31.62l3.72 13.14L52 303.5l7.44 52.19 16.74 128.45 11.16 93.11c1.86 16.74 3.72 35.34 9.41 59.51l1.86 20.46c1.86 20.57 5.58 35.45 9.3 41.03l1.86 7.44 3.72 11.16c0 3.72 1.86 7.44 5.58 11.16l14.88 20.46c14.88 16.85 35.34 26.15 59.51 26.15 13.02 0 26.04-1.86 40.92-5.58 13.13-3.72 24.29-9.41 31.73-14.99 5.58-5.58 14.88-16.74 24.18-35.34 7.44-16.74 13.02-27.9 16.74-31.61l33.48-35.45c13.02-13.02 24.18-18.6 35.34-18.6 5.58 0 15 3.72 22.44 13.02l22.32 26.15c24.18 29.76 55.8 53.94 92.99 70.68 37.31 14.88 80.09 24.3 128.44 24.3 24.18 0 59.63-3.72 106.13-11.28a485.06 485.06 0 0 0 102.4-26.04l29.76-13.02c11.16-3.72 18.6-9.3 26.03-14.88l16.74-13.02 5.58-5.58c0-1.86 3.72-5.58 7.44-13.02 1.86-5.58 3.72-9.3 7.44-9.3 1.86 0 3.72 1.86 5.58 3.72 1.86 1.86 1.86 5.58 1.86 7.44 0 3.72-1.86 13.02-7.44 26.04-5.58 11.16-7.44 18.6-7.44 24.18v1.86c0 9.3 22.32 13.02 68.93 13.02h18.6a50.46 50.46 0 0 0 31.61-11.16c9.3-7.44 13.02-16.74 13.02-27.9 0-13.02-11.16-35.34-35.34-67.07-24.18-31.61-61.49-66.95-111.7-107.98l-85.55-70.79c-5.58-5.58-9.41-9.3-11.28-14.88-1.86-3.72-3.72-13.02-3.72-24.18 0-1.86 0-5.58-1.86-7.44-1.86-1.86-3.72-5.58-3.72-7.44 0-1.86 1.86-3.72 1.86-5.58l1.86-5.58c3.72-7.44 5.58-13.02 5.58-20.46 0-5.58 1.86-11.16 5.7-16.74l11.16-22.43c18.6-35.34 53.93-68.82 104.15-104.27l41.03-27.9 96.71-59.63 42.9-27.9 27.9-14.88c14.88-7.44 29.76-14.88 39.06-20.46l18.6-11.16 39.06-24.3 20.46-11.16-1.86 3.72v5.58l-1.86 7.56-1.86 9.3-1.86 7.44-3.72 26.03c-1.86 1.86-3.72 5.58-5.58 7.44l-7.44 3.72-7.44 3.72-5.58 1.86-48.36 29.76-68.93 37.31-85.55 55.8-40.92 22.43-11.16 5.58c-9.41 7.44-14.99 11.16-16.86 13.02-1.86 3.72-3.72 5.58-5.58 7.44l-18.6 11.16-29.76 20.46-44.64 39.06c-18.6 18.71-27.9 31.73-27.9 39.17 0 7.44 13.02 16.74 39.06 26.04 18.6 5.58 39.06 18.6 65.09 35.34 24.18 18.72 50.33 35.45 76.37 54.05a633.6 633.6 0 0 1 65.1 44.64c14.88 11.16 33.48 24.3 52.19 39.18 26.04 16.74 46.49 29.76 57.65 42.77 13.02 11.16 24.18 20.46 29.76 26.04l35.34 26.15 18.72 14.88c35.34 31.61 78.11 46.49 128.33 46.49 35.45 0 70.79-3.72 104.27-11.16 33.48-7.44 67.07-16.74 98.69-29.76l9.3-3.72 9.3-3.72 5.58-1.86 5.58-3.72c1.86-1.86 3.72-1.86 3.72-3.72s0-1.86-1.86-3.72v-1.86s-1.86 0-5.58-1.86l-11.16-1.86-9.3-5.58c-1.86-1.86-3.72-1.86-5.58-1.86h-3.72c-1.86-1.86-3.72-3.72-7.44-3.72l-9.3-1.86-5.58-1.98-9.3-5.58c-1.86-1.86-3.72-1.86-5.7-1.86-3.72 0-13.02-1.86-31.62-7.44-16.74-3.72-29.76-5.58-39.06-5.58-13.02 0-33.48 7.44-57.65 20.46-7.44 5.69-11.16 7.56-14.88 7.56-1.86 0-1.86-1.86-1.86-5.58 0-9.41 1.86-16.86 7.44-24.3l1.86-3.72 9.3-18.6c5.58-13.02 16.74-24.18 35.34-33.48 16.74-9.3 33.48-14.88 52.07-14.88 5.58 0 11.16 0 14.88 1.86 3.72 1.86 13.02 5.58 29.87 14.88l18.6 7.44 24.18 16.74 40.92 20.46c7.44 3.72 16.74 9.3 24.18 11.16 9.3 1.86 16.74 3.72 26.04 7.44 26.15 5.58 44.75 9.3 54.05 13.02 9.3 1.98 18.6 3.84 27.9 3.84l42.77 1.86 9.3 1.86h16.74l9.41 1.86c5.58 0 9.3-1.86 14.88-3.72 3.72-1.86 7.44-1.86 13.02-1.86v1.86z" class="fil0"/>
</svg>
